%TF.GenerationSoftware,KiCad,Pcbnew,9.0.3*%
%TF.CreationDate,2025-08-19T23:17:00+03:00*%
%TF.ProjectId,Prj 1 - LED Torch,50726a20-3120-42d2-904c-454420546f72,0.1*%
%TF.SameCoordinates,Original*%
%TF.FileFunction,Legend,Bot*%
%TF.FilePolarity,Positive*%
%FSLAX46Y46*%
G04 Gerber Fmt 4.6, Leading zero omitted, Abs format (unit mm)*
G04 Created by KiCad (PCBNEW 9.0.3) date 2025-08-19 23:17:00*
%MOMM*%
%LPD*%
G01*
G04 APERTURE LIST*
%ADD10C,0.100000*%
%ADD11C,0.010000*%
G04 APERTURE END LIST*
D10*
X160178972Y-112872419D02*
X159845639Y-113872419D01*
X159845639Y-113872419D02*
X159512306Y-112872419D01*
X158655163Y-113872419D02*
X159226591Y-113872419D01*
X158940877Y-113872419D02*
X158940877Y-112872419D01*
X158940877Y-112872419D02*
X159036115Y-113015276D01*
X159036115Y-113015276D02*
X159131353Y-113110514D01*
X159131353Y-113110514D02*
X159226591Y-113158133D01*
X158226591Y-113777180D02*
X158178972Y-113824800D01*
X158178972Y-113824800D02*
X158226591Y-113872419D01*
X158226591Y-113872419D02*
X158274210Y-113824800D01*
X158274210Y-113824800D02*
X158226591Y-113777180D01*
X158226591Y-113777180D02*
X158226591Y-113872419D01*
X157559925Y-112872419D02*
X157464687Y-112872419D01*
X157464687Y-112872419D02*
X157369449Y-112920038D01*
X157369449Y-112920038D02*
X157321830Y-112967657D01*
X157321830Y-112967657D02*
X157274211Y-113062895D01*
X157274211Y-113062895D02*
X157226592Y-113253371D01*
X157226592Y-113253371D02*
X157226592Y-113491466D01*
X157226592Y-113491466D02*
X157274211Y-113681942D01*
X157274211Y-113681942D02*
X157321830Y-113777180D01*
X157321830Y-113777180D02*
X157369449Y-113824800D01*
X157369449Y-113824800D02*
X157464687Y-113872419D01*
X157464687Y-113872419D02*
X157559925Y-113872419D01*
X157559925Y-113872419D02*
X157655163Y-113824800D01*
X157655163Y-113824800D02*
X157702782Y-113777180D01*
X157702782Y-113777180D02*
X157750401Y-113681942D01*
X157750401Y-113681942D02*
X157798020Y-113491466D01*
X157798020Y-113491466D02*
X157798020Y-113253371D01*
X157798020Y-113253371D02*
X157750401Y-113062895D01*
X157750401Y-113062895D02*
X157702782Y-112967657D01*
X157702782Y-112967657D02*
X157655163Y-112920038D01*
X157655163Y-112920038D02*
X157559925Y-112872419D01*
D11*
%TO.C,REF1*%
X157307002Y-121614242D02*
X157341247Y-121635142D01*
X157376729Y-121663873D01*
X157376729Y-122525871D01*
X157341247Y-122554602D01*
X157299495Y-122577867D01*
X157251832Y-122578980D01*
X157209976Y-122551696D01*
X157204815Y-122545486D01*
X157197538Y-122532881D01*
X157191937Y-122514666D01*
X157187794Y-122487347D01*
X157184892Y-122447433D01*
X157183014Y-122391430D01*
X157181941Y-122315847D01*
X157181457Y-122217190D01*
X157181344Y-122091966D01*
X157181344Y-121663873D01*
X157216826Y-121635142D01*
X157248396Y-121615477D01*
X157279037Y-121606410D01*
X157307002Y-121614242D01*
G36*
X157307002Y-121614242D02*
G01*
X157341247Y-121635142D01*
X157376729Y-121663873D01*
X157376729Y-122525871D01*
X157341247Y-122554602D01*
X157299495Y-122577867D01*
X157251832Y-122578980D01*
X157209976Y-122551696D01*
X157204815Y-122545486D01*
X157197538Y-122532881D01*
X157191937Y-122514666D01*
X157187794Y-122487347D01*
X157184892Y-122447433D01*
X157183014Y-122391430D01*
X157181941Y-122315847D01*
X157181457Y-122217190D01*
X157181344Y-122091966D01*
X157181344Y-121663873D01*
X157216826Y-121635142D01*
X157248396Y-121615477D01*
X157279037Y-121606410D01*
X157307002Y-121614242D01*
G37*
X166800579Y-121612264D02*
X166846051Y-121643301D01*
X166882942Y-121680192D01*
X166882942Y-122096978D01*
X166882887Y-122208852D01*
X166882543Y-122307668D01*
X166881650Y-122383226D01*
X166879949Y-122439104D01*
X166877181Y-122478882D01*
X166873088Y-122506136D01*
X166867409Y-122524447D01*
X166859888Y-122537391D01*
X166850263Y-122548548D01*
X166808374Y-122577125D01*
X166761556Y-122579476D01*
X166717617Y-122553274D01*
X166710551Y-122545461D01*
X166703296Y-122533367D01*
X166697750Y-122515605D01*
X166693683Y-122488690D01*
X166690869Y-122449138D01*
X166689077Y-122393465D01*
X166688081Y-122318185D01*
X166687650Y-122219816D01*
X166687557Y-122094872D01*
X166687610Y-121994140D01*
X166687949Y-121890414D01*
X166688807Y-121810519D01*
X166690410Y-121750971D01*
X166692988Y-121708284D01*
X166696769Y-121678975D01*
X166701982Y-121659559D01*
X166708855Y-121646552D01*
X166717617Y-121636470D01*
X166756470Y-121611145D01*
X166800579Y-121612264D01*
G36*
X166800579Y-121612264D02*
G01*
X166846051Y-121643301D01*
X166882942Y-121680192D01*
X166882942Y-122096978D01*
X166882887Y-122208852D01*
X166882543Y-122307668D01*
X166881650Y-122383226D01*
X166879949Y-122439104D01*
X166877181Y-122478882D01*
X166873088Y-122506136D01*
X166867409Y-122524447D01*
X166859888Y-122537391D01*
X166850263Y-122548548D01*
X166808374Y-122577125D01*
X166761556Y-122579476D01*
X166717617Y-122553274D01*
X166710551Y-122545461D01*
X166703296Y-122533367D01*
X166697750Y-122515605D01*
X166693683Y-122488690D01*
X166690869Y-122449138D01*
X166689077Y-122393465D01*
X166688081Y-122318185D01*
X166687650Y-122219816D01*
X166687557Y-122094872D01*
X166687610Y-121994140D01*
X166687949Y-121890414D01*
X166688807Y-121810519D01*
X166690410Y-121750971D01*
X166692988Y-121708284D01*
X166696769Y-121678975D01*
X166701982Y-121659559D01*
X166708855Y-121646552D01*
X166717617Y-121636470D01*
X166756470Y-121611145D01*
X166800579Y-121612264D01*
G37*
X166886337Y-113070839D02*
X167025779Y-113105005D01*
X167157955Y-113166325D01*
X167278699Y-113254810D01*
X167383846Y-113370470D01*
X167469230Y-113513313D01*
X167492121Y-113563633D01*
X167510666Y-113614636D01*
X167521072Y-113665624D01*
X167525633Y-113728691D01*
X167526643Y-113815929D01*
X167526032Y-113888539D01*
X167522350Y-113955270D01*
X167513322Y-114007334D01*
X167496694Y-114056686D01*
X167470212Y-114115286D01*
X167462552Y-114130902D01*
X167372006Y-114273893D01*
X167258125Y-114391543D01*
X167124141Y-114481089D01*
X166973286Y-114539772D01*
X166895881Y-114556147D01*
X166738849Y-114563810D01*
X166586753Y-114539016D01*
X166444054Y-114484306D01*
X166315212Y-114402223D01*
X166204686Y-114295309D01*
X166116936Y-114166107D01*
X166056423Y-114017158D01*
X166034283Y-113895265D01*
X166032288Y-113760751D01*
X166050295Y-113629908D01*
X166087446Y-113516572D01*
X166130372Y-113435543D01*
X166225933Y-113306987D01*
X166339221Y-113205527D01*
X166466071Y-113131172D01*
X166602318Y-113083933D01*
X166743795Y-113063818D01*
X166886337Y-113070839D01*
G36*
X166886337Y-113070839D02*
G01*
X167025779Y-113105005D01*
X167157955Y-113166325D01*
X167278699Y-113254810D01*
X167383846Y-113370470D01*
X167469230Y-113513313D01*
X167492121Y-113563633D01*
X167510666Y-113614636D01*
X167521072Y-113665624D01*
X167525633Y-113728691D01*
X167526643Y-113815929D01*
X167526032Y-113888539D01*
X167522350Y-113955270D01*
X167513322Y-114007334D01*
X167496694Y-114056686D01*
X167470212Y-114115286D01*
X167462552Y-114130902D01*
X167372006Y-114273893D01*
X167258125Y-114391543D01*
X167124141Y-114481089D01*
X166973286Y-114539772D01*
X166895881Y-114556147D01*
X166738849Y-114563810D01*
X166586753Y-114539016D01*
X166444054Y-114484306D01*
X166315212Y-114402223D01*
X166204686Y-114295309D01*
X166116936Y-114166107D01*
X166056423Y-114017158D01*
X166034283Y-113895265D01*
X166032288Y-113760751D01*
X166050295Y-113629908D01*
X166087446Y-113516572D01*
X166130372Y-113435543D01*
X166225933Y-113306987D01*
X166339221Y-113205527D01*
X166466071Y-113131172D01*
X166602318Y-113083933D01*
X166743795Y-113063818D01*
X166886337Y-113070839D01*
G37*
X156375531Y-121606412D02*
X156500843Y-121606532D01*
X156600048Y-121606984D01*
X156676478Y-121607972D01*
X156733459Y-121609697D01*
X156774323Y-121612361D01*
X156802397Y-121616169D01*
X156821012Y-121621321D01*
X156833496Y-121628020D01*
X156843179Y-121636470D01*
X156868216Y-121680029D01*
X156870142Y-121730057D01*
X156848364Y-121774310D01*
X156846553Y-121776245D01*
X156831638Y-121787376D01*
X156808868Y-121794771D01*
X156772696Y-121799157D01*
X156717573Y-121801256D01*
X156637950Y-121801795D01*
X156452409Y-121801795D01*
X156452409Y-122152963D01*
X156452309Y-122253918D01*
X156451766Y-122342674D01*
X156450458Y-122408955D01*
X156448067Y-122456773D01*
X156444271Y-122490146D01*
X156438752Y-122513086D01*
X156431188Y-122529610D01*
X156421259Y-122543733D01*
X156418210Y-122547469D01*
X156376700Y-122577614D01*
X156330929Y-122579696D01*
X156287084Y-122553274D01*
X156277793Y-122542523D01*
X156270508Y-122528412D01*
X156265156Y-122507319D01*
X156261440Y-122475398D01*
X156259064Y-122428802D01*
X156257734Y-122363685D01*
X156257153Y-122276201D01*
X156257025Y-122162505D01*
X156257025Y-121801795D01*
X156062731Y-121801795D01*
X156047953Y-121801794D01*
X155972708Y-121801494D01*
X155920992Y-121799977D01*
X155887185Y-121796250D01*
X155865668Y-121789318D01*
X155850821Y-121778186D01*
X155837024Y-121761860D01*
X155815926Y-121721003D01*
X155820056Y-121676029D01*
X155854197Y-121632712D01*
X155860775Y-121627763D01*
X155874369Y-121621325D01*
X155894906Y-121616314D01*
X155925689Y-121612557D01*
X155970020Y-121609876D01*
X156031201Y-121608096D01*
X156112535Y-121607043D01*
X156217323Y-121606539D01*
X156348867Y-121606410D01*
X156375531Y-121606412D01*
G36*
X156375531Y-121606412D02*
G01*
X156500843Y-121606532D01*
X156600048Y-121606984D01*
X156676478Y-121607972D01*
X156733459Y-121609697D01*
X156774323Y-121612361D01*
X156802397Y-121616169D01*
X156821012Y-121621321D01*
X156833496Y-121628020D01*
X156843179Y-121636470D01*
X156868216Y-121680029D01*
X156870142Y-121730057D01*
X156848364Y-121774310D01*
X156846553Y-121776245D01*
X156831638Y-121787376D01*
X156808868Y-121794771D01*
X156772696Y-121799157D01*
X156717573Y-121801256D01*
X156637950Y-121801795D01*
X156452409Y-121801795D01*
X156452409Y-122152963D01*
X156452309Y-122253918D01*
X156451766Y-122342674D01*
X156450458Y-122408955D01*
X156448067Y-122456773D01*
X156444271Y-122490146D01*
X156438752Y-122513086D01*
X156431188Y-122529610D01*
X156421259Y-122543733D01*
X156418210Y-122547469D01*
X156376700Y-122577614D01*
X156330929Y-122579696D01*
X156287084Y-122553274D01*
X156277793Y-122542523D01*
X156270508Y-122528412D01*
X156265156Y-122507319D01*
X156261440Y-122475398D01*
X156259064Y-122428802D01*
X156257734Y-122363685D01*
X156257153Y-122276201D01*
X156257025Y-122162505D01*
X156257025Y-121801795D01*
X156062731Y-121801795D01*
X156047953Y-121801794D01*
X155972708Y-121801494D01*
X155920992Y-121799977D01*
X155887185Y-121796250D01*
X155865668Y-121789318D01*
X155850821Y-121778186D01*
X155837024Y-121761860D01*
X155815926Y-121721003D01*
X155820056Y-121676029D01*
X155854197Y-121632712D01*
X155860775Y-121627763D01*
X155874369Y-121621325D01*
X155894906Y-121616314D01*
X155925689Y-121612557D01*
X155970020Y-121609876D01*
X156031201Y-121608096D01*
X156112535Y-121607043D01*
X156217323Y-121606539D01*
X156348867Y-121606410D01*
X156375531Y-121606412D01*
G37*
X155475486Y-121636470D02*
X155482985Y-121644711D01*
X155489762Y-121655636D01*
X155495202Y-121671315D01*
X155499434Y-121694559D01*
X155502584Y-121728181D01*
X155504782Y-121774992D01*
X155506155Y-121837803D01*
X155506832Y-121919427D01*
X155506940Y-122022674D01*
X155506608Y-122150357D01*
X155505964Y-122305286D01*
X155505872Y-122324158D01*
X155505092Y-122406386D01*
X155503331Y-122464544D01*
X155499942Y-122503660D01*
X155494277Y-122528761D01*
X155485688Y-122544876D01*
X155473527Y-122557032D01*
X155428983Y-122580220D01*
X155382454Y-122576357D01*
X155341311Y-122543733D01*
X155329316Y-122526155D01*
X155319396Y-122501477D01*
X155313581Y-122466824D01*
X155310845Y-122415505D01*
X155310161Y-122340833D01*
X155310161Y-122177535D01*
X154648859Y-122177535D01*
X154648859Y-122357038D01*
X154648762Y-122404688D01*
X154647747Y-122466370D01*
X154644849Y-122507022D01*
X154639128Y-122532358D01*
X154629644Y-122548092D01*
X154615456Y-122559937D01*
X154572518Y-122580000D01*
X154525539Y-122576449D01*
X154484625Y-122543733D01*
X154478426Y-122535405D01*
X154470524Y-122521394D01*
X154464491Y-122502848D01*
X154460077Y-122476123D01*
X154457029Y-122437570D01*
X154455097Y-122383544D01*
X154454028Y-122310398D01*
X154453571Y-122214486D01*
X154453475Y-122092162D01*
X154453475Y-121680192D01*
X154490365Y-121643301D01*
X154532141Y-121613688D01*
X154576381Y-121610107D01*
X154618800Y-121636470D01*
X154629831Y-121649478D01*
X154639699Y-121670636D01*
X154645474Y-121702545D01*
X154648184Y-121751636D01*
X154648859Y-121824339D01*
X154648859Y-121982150D01*
X155310161Y-121982150D01*
X155310161Y-121828360D01*
X155310744Y-121759533D01*
X155313359Y-121713568D01*
X155319371Y-121683511D01*
X155330147Y-121662407D01*
X155347052Y-121643301D01*
X155388828Y-121613688D01*
X155433067Y-121610107D01*
X155475486Y-121636470D01*
G36*
X155475486Y-121636470D02*
G01*
X155482985Y-121644711D01*
X155489762Y-121655636D01*
X155495202Y-121671315D01*
X155499434Y-121694559D01*
X155502584Y-121728181D01*
X155504782Y-121774992D01*
X155506155Y-121837803D01*
X155506832Y-121919427D01*
X155506940Y-122022674D01*
X155506608Y-122150357D01*
X155505964Y-122305286D01*
X155505872Y-122324158D01*
X155505092Y-122406386D01*
X155503331Y-122464544D01*
X155499942Y-122503660D01*
X155494277Y-122528761D01*
X155485688Y-122544876D01*
X155473527Y-122557032D01*
X155428983Y-122580220D01*
X155382454Y-122576357D01*
X155341311Y-122543733D01*
X155329316Y-122526155D01*
X155319396Y-122501477D01*
X155313581Y-122466824D01*
X155310845Y-122415505D01*
X155310161Y-122340833D01*
X155310161Y-122177535D01*
X154648859Y-122177535D01*
X154648859Y-122357038D01*
X154648762Y-122404688D01*
X154647747Y-122466370D01*
X154644849Y-122507022D01*
X154639128Y-122532358D01*
X154629644Y-122548092D01*
X154615456Y-122559937D01*
X154572518Y-122580000D01*
X154525539Y-122576449D01*
X154484625Y-122543733D01*
X154478426Y-122535405D01*
X154470524Y-122521394D01*
X154464491Y-122502848D01*
X154460077Y-122476123D01*
X154457029Y-122437570D01*
X154455097Y-122383544D01*
X154454028Y-122310398D01*
X154453571Y-122214486D01*
X154453475Y-122092162D01*
X154453475Y-121680192D01*
X154490365Y-121643301D01*
X154532141Y-121613688D01*
X154576381Y-121610107D01*
X154618800Y-121636470D01*
X154629831Y-121649478D01*
X154639699Y-121670636D01*
X154645474Y-121702545D01*
X154648184Y-121751636D01*
X154648859Y-121824339D01*
X154648859Y-121982150D01*
X155310161Y-121982150D01*
X155310161Y-121828360D01*
X155310744Y-121759533D01*
X155313359Y-121713568D01*
X155319371Y-121683511D01*
X155330147Y-121662407D01*
X155347052Y-121643301D01*
X155388828Y-121613688D01*
X155433067Y-121610107D01*
X155475486Y-121636470D01*
G37*
X161740071Y-122420311D02*
X161737449Y-122463950D01*
X161733550Y-122494466D01*
X161728122Y-122515504D01*
X161720914Y-122530711D01*
X161711674Y-122543733D01*
X161680524Y-122583334D01*
X161459928Y-122582543D01*
X161413602Y-122582146D01*
X161282485Y-122577579D01*
X161174696Y-122567351D01*
X161085369Y-122550632D01*
X161009637Y-122526595D01*
X160942634Y-122494409D01*
X160938162Y-122491857D01*
X160861194Y-122442972D01*
X160804805Y-122393757D01*
X160761115Y-122335862D01*
X160722239Y-122260937D01*
X160716539Y-122248135D01*
X160686480Y-122164012D01*
X160678845Y-122103362D01*
X160877544Y-122103362D01*
X160885017Y-122136284D01*
X160892640Y-122157424D01*
X160936482Y-122237183D01*
X160999506Y-122298097D01*
X161084401Y-122342212D01*
X161193851Y-122371575D01*
X161197570Y-122372243D01*
X161259193Y-122380181D01*
X161334277Y-122385810D01*
X161407418Y-122387949D01*
X161532409Y-122387949D01*
X161532409Y-121801795D01*
X161415930Y-121802392D01*
X161326836Y-121805688D01*
X161203821Y-121820668D01*
X161098224Y-121846682D01*
X161015713Y-121882594D01*
X160974521Y-121910191D01*
X160937083Y-121949820D01*
X160906010Y-122006307D01*
X160896521Y-122027564D01*
X160880779Y-122070836D01*
X160877544Y-122103362D01*
X160678845Y-122103362D01*
X160677199Y-122090284D01*
X160688651Y-122017024D01*
X160720792Y-121934304D01*
X160721851Y-121932050D01*
X160775707Y-121839624D01*
X160843186Y-121764271D01*
X160926697Y-121704935D01*
X161028647Y-121660563D01*
X161151445Y-121630101D01*
X161297499Y-121612493D01*
X161469217Y-121606687D01*
X161473972Y-121606681D01*
X161553881Y-121606867D01*
X161609706Y-121608247D01*
X161647135Y-121611701D01*
X161671857Y-121618108D01*
X161689560Y-121628348D01*
X161705933Y-121643301D01*
X161742824Y-121680192D01*
X161742824Y-122092162D01*
X161742790Y-122174181D01*
X161742490Y-122279072D01*
X161741668Y-122359900D01*
X161740926Y-122387949D01*
X161740071Y-122420311D01*
G36*
X161740071Y-122420311D02*
G01*
X161737449Y-122463950D01*
X161733550Y-122494466D01*
X161728122Y-122515504D01*
X161720914Y-122530711D01*
X161711674Y-122543733D01*
X161680524Y-122583334D01*
X161459928Y-122582543D01*
X161413602Y-122582146D01*
X161282485Y-122577579D01*
X161174696Y-122567351D01*
X161085369Y-122550632D01*
X161009637Y-122526595D01*
X160942634Y-122494409D01*
X160938162Y-122491857D01*
X160861194Y-122442972D01*
X160804805Y-122393757D01*
X160761115Y-122335862D01*
X160722239Y-122260937D01*
X160716539Y-122248135D01*
X160686480Y-122164012D01*
X160678845Y-122103362D01*
X160877544Y-122103362D01*
X160885017Y-122136284D01*
X160892640Y-122157424D01*
X160936482Y-122237183D01*
X160999506Y-122298097D01*
X161084401Y-122342212D01*
X161193851Y-122371575D01*
X161197570Y-122372243D01*
X161259193Y-122380181D01*
X161334277Y-122385810D01*
X161407418Y-122387949D01*
X161532409Y-122387949D01*
X161532409Y-121801795D01*
X161415930Y-121802392D01*
X161326836Y-121805688D01*
X161203821Y-121820668D01*
X161098224Y-121846682D01*
X161015713Y-121882594D01*
X160974521Y-121910191D01*
X160937083Y-121949820D01*
X160906010Y-122006307D01*
X160896521Y-122027564D01*
X160880779Y-122070836D01*
X160877544Y-122103362D01*
X160678845Y-122103362D01*
X160677199Y-122090284D01*
X160688651Y-122017024D01*
X160720792Y-121934304D01*
X160721851Y-121932050D01*
X160775707Y-121839624D01*
X160843186Y-121764271D01*
X160926697Y-121704935D01*
X161028647Y-121660563D01*
X161151445Y-121630101D01*
X161297499Y-121612493D01*
X161469217Y-121606687D01*
X161473972Y-121606681D01*
X161553881Y-121606867D01*
X161609706Y-121608247D01*
X161647135Y-121611701D01*
X161671857Y-121618108D01*
X161689560Y-121628348D01*
X161705933Y-121643301D01*
X161742824Y-121680192D01*
X161742824Y-122092162D01*
X161742790Y-122174181D01*
X161742490Y-122279072D01*
X161741668Y-122359900D01*
X161740926Y-122387949D01*
X161740071Y-122420311D01*
G37*
X171181662Y-121853192D02*
X171181734Y-121960519D01*
X171181403Y-122094872D01*
X171181351Y-122195605D01*
X171181011Y-122299330D01*
X171180154Y-122379225D01*
X171178551Y-122438773D01*
X171175973Y-122481460D01*
X171172192Y-122510769D01*
X171166979Y-122530185D01*
X171160106Y-122543192D01*
X171151344Y-122553274D01*
X171142068Y-122561574D01*
X171124763Y-122571293D01*
X171099270Y-122577622D01*
X171060123Y-122581266D01*
X171001855Y-122582935D01*
X170919000Y-122583334D01*
X170853834Y-122582834D01*
X170711566Y-122576938D01*
X170592771Y-122563508D01*
X170493188Y-122541423D01*
X170408552Y-122509563D01*
X170334600Y-122466808D01*
X170267067Y-122412038D01*
X170259095Y-122404246D01*
X170210011Y-122339663D01*
X170168607Y-122258705D01*
X170140005Y-122173174D01*
X170132974Y-122121593D01*
X170328974Y-122121593D01*
X170353314Y-122189406D01*
X170392816Y-122250538D01*
X170454986Y-122307000D01*
X170536717Y-122346678D01*
X170642090Y-122372155D01*
X170644074Y-122372472D01*
X170709272Y-122380183D01*
X170787415Y-122385696D01*
X170862025Y-122387835D01*
X170986019Y-122387949D01*
X170986019Y-121801795D01*
X170884569Y-121801776D01*
X170880538Y-121801788D01*
X170812479Y-121804404D01*
X170732461Y-121810694D01*
X170656961Y-121819386D01*
X170590449Y-121831763D01*
X170490927Y-121866735D01*
X170414362Y-121919056D01*
X170359109Y-121989665D01*
X170330861Y-122057919D01*
X170328974Y-122121593D01*
X170132974Y-122121593D01*
X170129332Y-122094872D01*
X170131035Y-122066625D01*
X170147427Y-121990184D01*
X170177421Y-121910421D01*
X170216337Y-121838462D01*
X170259495Y-121785433D01*
X170285512Y-121762769D01*
X170358353Y-121710597D01*
X170438638Y-121670483D01*
X170530763Y-121641246D01*
X170639125Y-121621699D01*
X170768119Y-121610660D01*
X170922143Y-121606944D01*
X170974708Y-121606409D01*
X171035566Y-121605859D01*
X171083229Y-121608261D01*
X171119297Y-121616625D01*
X171145368Y-121633960D01*
X171163041Y-121663275D01*
X171173915Y-121707579D01*
X171179590Y-121769881D01*
X171180384Y-121801795D01*
X171181662Y-121853192D01*
G36*
X171181662Y-121853192D02*
G01*
X171181734Y-121960519D01*
X171181403Y-122094872D01*
X171181351Y-122195605D01*
X171181011Y-122299330D01*
X171180154Y-122379225D01*
X171178551Y-122438773D01*
X171175973Y-122481460D01*
X171172192Y-122510769D01*
X171166979Y-122530185D01*
X171160106Y-122543192D01*
X171151344Y-122553274D01*
X171142068Y-122561574D01*
X171124763Y-122571293D01*
X171099270Y-122577622D01*
X171060123Y-122581266D01*
X171001855Y-122582935D01*
X170919000Y-122583334D01*
X170853834Y-122582834D01*
X170711566Y-122576938D01*
X170592771Y-122563508D01*
X170493188Y-122541423D01*
X170408552Y-122509563D01*
X170334600Y-122466808D01*
X170267067Y-122412038D01*
X170259095Y-122404246D01*
X170210011Y-122339663D01*
X170168607Y-122258705D01*
X170140005Y-122173174D01*
X170132974Y-122121593D01*
X170328974Y-122121593D01*
X170353314Y-122189406D01*
X170392816Y-122250538D01*
X170454986Y-122307000D01*
X170536717Y-122346678D01*
X170642090Y-122372155D01*
X170644074Y-122372472D01*
X170709272Y-122380183D01*
X170787415Y-122385696D01*
X170862025Y-122387835D01*
X170986019Y-122387949D01*
X170986019Y-121801795D01*
X170884569Y-121801776D01*
X170880538Y-121801788D01*
X170812479Y-121804404D01*
X170732461Y-121810694D01*
X170656961Y-121819386D01*
X170590449Y-121831763D01*
X170490927Y-121866735D01*
X170414362Y-121919056D01*
X170359109Y-121989665D01*
X170330861Y-122057919D01*
X170328974Y-122121593D01*
X170132974Y-122121593D01*
X170129332Y-122094872D01*
X170131035Y-122066625D01*
X170147427Y-121990184D01*
X170177421Y-121910421D01*
X170216337Y-121838462D01*
X170259495Y-121785433D01*
X170285512Y-121762769D01*
X170358353Y-121710597D01*
X170438638Y-121670483D01*
X170530763Y-121641246D01*
X170639125Y-121621699D01*
X170768119Y-121610660D01*
X170922143Y-121606944D01*
X170974708Y-121606409D01*
X171035566Y-121605859D01*
X171083229Y-121608261D01*
X171119297Y-121616625D01*
X171145368Y-121633960D01*
X171163041Y-121663275D01*
X171173915Y-121707579D01*
X171179590Y-121769881D01*
X171180384Y-121801795D01*
X171181662Y-121853192D01*
G37*
X164598184Y-121604846D02*
X164613372Y-121613017D01*
X164627416Y-121627212D01*
X164642443Y-121646011D01*
X164648371Y-121653948D01*
X164656357Y-121667920D01*
X164662454Y-121686327D01*
X164666916Y-121712827D01*
X164669997Y-121751083D01*
X164671951Y-121804755D01*
X164673033Y-121877503D01*
X164673495Y-121972988D01*
X164673593Y-122094872D01*
X164673562Y-122172797D01*
X164673272Y-122278091D01*
X164672461Y-122359227D01*
X164670875Y-122419866D01*
X164668262Y-122463669D01*
X164664366Y-122494296D01*
X164658933Y-122515409D01*
X164651710Y-122530667D01*
X164642443Y-122543733D01*
X164601931Y-122576209D01*
X164555410Y-122580042D01*
X164506175Y-122554626D01*
X164500605Y-122550000D01*
X164489720Y-122538646D01*
X164481651Y-122523268D01*
X164475816Y-122499526D01*
X164471633Y-122463084D01*
X164468521Y-122409604D01*
X164465897Y-122334747D01*
X164463179Y-122234177D01*
X164455664Y-121942435D01*
X164102469Y-122262814D01*
X164004169Y-122351718D01*
X163917391Y-122429091D01*
X163847902Y-122488946D01*
X163793217Y-122532777D01*
X163750854Y-122562077D01*
X163718332Y-122578340D01*
X163693166Y-122583060D01*
X163672875Y-122577731D01*
X163654976Y-122563846D01*
X163636987Y-122542899D01*
X163628672Y-122531605D01*
X163621174Y-122517523D01*
X163615568Y-122498673D01*
X163611638Y-122471443D01*
X163609168Y-122432221D01*
X163607944Y-122377394D01*
X163607751Y-122303348D01*
X163608373Y-122206471D01*
X163609594Y-122083150D01*
X163614007Y-121663835D01*
X163649489Y-121635123D01*
X163684191Y-121613566D01*
X163727937Y-121609877D01*
X163773910Y-121635110D01*
X163779651Y-121639882D01*
X163790478Y-121651238D01*
X163798505Y-121666671D01*
X163804310Y-121690510D01*
X163808474Y-121727084D01*
X163811576Y-121780722D01*
X163814193Y-121855754D01*
X163816906Y-121956508D01*
X163824421Y-122249207D01*
X164064895Y-122031138D01*
X164180374Y-121926448D01*
X164281253Y-121835392D01*
X164363979Y-121761702D01*
X164430678Y-121703960D01*
X164483476Y-121660749D01*
X164524499Y-121630649D01*
X164555874Y-121612244D01*
X164579727Y-121604116D01*
X164598184Y-121604846D01*
G36*
X164598184Y-121604846D02*
G01*
X164613372Y-121613017D01*
X164627416Y-121627212D01*
X164642443Y-121646011D01*
X164648371Y-121653948D01*
X164656357Y-121667920D01*
X164662454Y-121686327D01*
X164666916Y-121712827D01*
X164669997Y-121751083D01*
X164671951Y-121804755D01*
X164673033Y-121877503D01*
X164673495Y-121972988D01*
X164673593Y-122094872D01*
X164673562Y-122172797D01*
X164673272Y-122278091D01*
X164672461Y-122359227D01*
X164670875Y-122419866D01*
X164668262Y-122463669D01*
X164664366Y-122494296D01*
X164658933Y-122515409D01*
X164651710Y-122530667D01*
X164642443Y-122543733D01*
X164601931Y-122576209D01*
X164555410Y-122580042D01*
X164506175Y-122554626D01*
X164500605Y-122550000D01*
X164489720Y-122538646D01*
X164481651Y-122523268D01*
X164475816Y-122499526D01*
X164471633Y-122463084D01*
X164468521Y-122409604D01*
X164465897Y-122334747D01*
X164463179Y-122234177D01*
X164455664Y-121942435D01*
X164102469Y-122262814D01*
X164004169Y-122351718D01*
X163917391Y-122429091D01*
X163847902Y-122488946D01*
X163793217Y-122532777D01*
X163750854Y-122562077D01*
X163718332Y-122578340D01*
X163693166Y-122583060D01*
X163672875Y-122577731D01*
X163654976Y-122563846D01*
X163636987Y-122542899D01*
X163628672Y-122531605D01*
X163621174Y-122517523D01*
X163615568Y-122498673D01*
X163611638Y-122471443D01*
X163609168Y-122432221D01*
X163607944Y-122377394D01*
X163607751Y-122303348D01*
X163608373Y-122206471D01*
X163609594Y-122083150D01*
X163614007Y-121663835D01*
X163649489Y-121635123D01*
X163684191Y-121613566D01*
X163727937Y-121609877D01*
X163773910Y-121635110D01*
X163779651Y-121639882D01*
X163790478Y-121651238D01*
X163798505Y-121666671D01*
X163804310Y-121690510D01*
X163808474Y-121727084D01*
X163811576Y-121780722D01*
X163814193Y-121855754D01*
X163816906Y-121956508D01*
X163824421Y-122249207D01*
X164064895Y-122031138D01*
X164180374Y-121926448D01*
X164281253Y-121835392D01*
X164363979Y-121761702D01*
X164430678Y-121703960D01*
X164483476Y-121660749D01*
X164524499Y-121630649D01*
X164555874Y-121612244D01*
X164579727Y-121604116D01*
X164598184Y-121604846D01*
G37*
X165659621Y-121613217D02*
X165800754Y-121634938D01*
X165925652Y-121672285D01*
X166030557Y-121724083D01*
X166111709Y-121789162D01*
X166146418Y-121832913D01*
X166185703Y-121898414D01*
X166219349Y-121970119D01*
X166242847Y-122038241D01*
X166251688Y-122092993D01*
X166249611Y-122119241D01*
X166232381Y-122187583D01*
X166201543Y-122262840D01*
X166161746Y-122334622D01*
X166117640Y-122392542D01*
X166104065Y-122406319D01*
X166014750Y-122475250D01*
X165908074Y-122528362D01*
X165793297Y-122560849D01*
X165720120Y-122571649D01*
X165595700Y-122580442D01*
X165476170Y-122577663D01*
X165366346Y-122564023D01*
X165271044Y-122540232D01*
X165195079Y-122506998D01*
X165143267Y-122465033D01*
X165141436Y-122462403D01*
X165132000Y-122428818D01*
X165126356Y-122365910D01*
X165124480Y-122273428D01*
X165125625Y-122190574D01*
X165131909Y-122127491D01*
X165147472Y-122084750D01*
X165176455Y-122058719D01*
X165222998Y-122045764D01*
X165291241Y-122042253D01*
X165385324Y-122044554D01*
X165450055Y-122048564D01*
X165516884Y-122059471D01*
X165560145Y-122078181D01*
X165583389Y-122106453D01*
X165590167Y-122146048D01*
X165590026Y-122152094D01*
X165578440Y-122198417D01*
X165546475Y-122229594D01*
X165491536Y-122247168D01*
X165411031Y-122252683D01*
X165319865Y-122252683D01*
X165319865Y-122303743D01*
X165319932Y-122315906D01*
X165322888Y-122338873D01*
X165335226Y-122352578D01*
X165363692Y-122361814D01*
X165415031Y-122371376D01*
X165422319Y-122372620D01*
X165551395Y-122385805D01*
X165671206Y-122381918D01*
X165778924Y-122362307D01*
X165871718Y-122328317D01*
X165946760Y-122281293D01*
X166001220Y-122222581D01*
X166032270Y-122153527D01*
X166037079Y-122075478D01*
X166029732Y-122037008D01*
X165994207Y-121962599D01*
X165932713Y-121901810D01*
X165846199Y-121855431D01*
X165735614Y-121824252D01*
X165702763Y-121818329D01*
X165583834Y-121804351D01*
X165477582Y-121805987D01*
X165373613Y-121823209D01*
X165326824Y-121832248D01*
X165266330Y-121833603D01*
X165224639Y-121816919D01*
X165197807Y-121781256D01*
X165189308Y-121743649D01*
X165201938Y-121702078D01*
X165214358Y-121684204D01*
X165259936Y-121652875D01*
X165329995Y-121629082D01*
X165421216Y-121613776D01*
X165530279Y-121607909D01*
X165659621Y-121613217D01*
G36*
X165659621Y-121613217D02*
G01*
X165800754Y-121634938D01*
X165925652Y-121672285D01*
X166030557Y-121724083D01*
X166111709Y-121789162D01*
X166146418Y-121832913D01*
X166185703Y-121898414D01*
X166219349Y-121970119D01*
X166242847Y-122038241D01*
X166251688Y-122092993D01*
X166249611Y-122119241D01*
X166232381Y-122187583D01*
X166201543Y-122262840D01*
X166161746Y-122334622D01*
X166117640Y-122392542D01*
X166104065Y-122406319D01*
X166014750Y-122475250D01*
X165908074Y-122528362D01*
X165793297Y-122560849D01*
X165720120Y-122571649D01*
X165595700Y-122580442D01*
X165476170Y-122577663D01*
X165366346Y-122564023D01*
X165271044Y-122540232D01*
X165195079Y-122506998D01*
X165143267Y-122465033D01*
X165141436Y-122462403D01*
X165132000Y-122428818D01*
X165126356Y-122365910D01*
X165124480Y-122273428D01*
X165125625Y-122190574D01*
X165131909Y-122127491D01*
X165147472Y-122084750D01*
X165176455Y-122058719D01*
X165222998Y-122045764D01*
X165291241Y-122042253D01*
X165385324Y-122044554D01*
X165450055Y-122048564D01*
X165516884Y-122059471D01*
X165560145Y-122078181D01*
X165583389Y-122106453D01*
X165590167Y-122146048D01*
X165590026Y-122152094D01*
X165578440Y-122198417D01*
X165546475Y-122229594D01*
X165491536Y-122247168D01*
X165411031Y-122252683D01*
X165319865Y-122252683D01*
X165319865Y-122303743D01*
X165319932Y-122315906D01*
X165322888Y-122338873D01*
X165335226Y-122352578D01*
X165363692Y-122361814D01*
X165415031Y-122371376D01*
X165422319Y-122372620D01*
X165551395Y-122385805D01*
X165671206Y-122381918D01*
X165778924Y-122362307D01*
X165871718Y-122328317D01*
X165946760Y-122281293D01*
X166001220Y-122222581D01*
X166032270Y-122153527D01*
X166037079Y-122075478D01*
X166029732Y-122037008D01*
X165994207Y-121962599D01*
X165932713Y-121901810D01*
X165846199Y-121855431D01*
X165735614Y-121824252D01*
X165702763Y-121818329D01*
X165583834Y-121804351D01*
X165477582Y-121805987D01*
X165373613Y-121823209D01*
X165326824Y-121832248D01*
X165266330Y-121833603D01*
X165224639Y-121816919D01*
X165197807Y-121781256D01*
X165189308Y-121743649D01*
X165201938Y-121702078D01*
X165214358Y-121684204D01*
X165259936Y-121652875D01*
X165329995Y-121629082D01*
X165421216Y-121613776D01*
X165530279Y-121607909D01*
X165659621Y-121613217D01*
G37*
X163064336Y-121646011D02*
X163070925Y-121654910D01*
X163078706Y-121668984D01*
X163084645Y-121687739D01*
X163088991Y-121714799D01*
X163091990Y-121753790D01*
X163093892Y-121808339D01*
X163094943Y-121882069D01*
X163095392Y-121978608D01*
X163095486Y-122101580D01*
X163095448Y-122189339D01*
X163095139Y-122293607D01*
X163094313Y-122373845D01*
X163092725Y-122433621D01*
X163090132Y-122476502D01*
X163086291Y-122506056D01*
X163080958Y-122525852D01*
X163073890Y-122539457D01*
X163064842Y-122550440D01*
X163058831Y-122556641D01*
X163047874Y-122565277D01*
X163032750Y-122571816D01*
X163009760Y-122576550D01*
X162975204Y-122579769D01*
X162925386Y-122581766D01*
X162856604Y-122582831D01*
X162765161Y-122583256D01*
X162647357Y-122583334D01*
X162621163Y-122583325D01*
X162505302Y-122582970D01*
X162415232Y-122581951D01*
X162347393Y-122580068D01*
X162298224Y-122577123D01*
X162264162Y-122572919D01*
X162241646Y-122567256D01*
X162227115Y-122559937D01*
X162213145Y-122546642D01*
X162195490Y-122505214D01*
X162197064Y-122457434D01*
X162218585Y-122415434D01*
X162221500Y-122412404D01*
X162233066Y-122404059D01*
X162250829Y-122397847D01*
X162278765Y-122393458D01*
X162320851Y-122390584D01*
X162381065Y-122388914D01*
X162463382Y-122388139D01*
X162571780Y-122387949D01*
X162900102Y-122387949D01*
X162900102Y-122177535D01*
X162683838Y-122177535D01*
X162636350Y-122177428D01*
X162562100Y-122176366D01*
X162509993Y-122173697D01*
X162474774Y-122168849D01*
X162451185Y-122161249D01*
X162433971Y-122150325D01*
X162429121Y-122146086D01*
X162404614Y-122104847D01*
X162403770Y-122056471D01*
X162427120Y-122011711D01*
X162427203Y-122011620D01*
X162440078Y-122000135D01*
X162457777Y-121992073D01*
X162485346Y-121986839D01*
X162527831Y-121983837D01*
X162590279Y-121982473D01*
X162677737Y-121982150D01*
X162901602Y-121982150D01*
X162897094Y-121895730D01*
X162892587Y-121809310D01*
X162570295Y-121805245D01*
X162536989Y-121804809D01*
X162428324Y-121802839D01*
X162345354Y-121799665D01*
X162284626Y-121794345D01*
X162242685Y-121785940D01*
X162216078Y-121773506D01*
X162201349Y-121756103D01*
X162195045Y-121732790D01*
X162193711Y-121702626D01*
X162193719Y-121699476D01*
X162195255Y-121672808D01*
X162201643Y-121651782D01*
X162216032Y-121635731D01*
X162241573Y-121623984D01*
X162281419Y-121615874D01*
X162338718Y-121610730D01*
X162416623Y-121607884D01*
X162518284Y-121606667D01*
X162646852Y-121606410D01*
X163033186Y-121606410D01*
X163064336Y-121646011D01*
G36*
X163064336Y-121646011D02*
G01*
X163070925Y-121654910D01*
X163078706Y-121668984D01*
X163084645Y-121687739D01*
X163088991Y-121714799D01*
X163091990Y-121753790D01*
X163093892Y-121808339D01*
X163094943Y-121882069D01*
X163095392Y-121978608D01*
X163095486Y-122101580D01*
X163095448Y-122189339D01*
X163095139Y-122293607D01*
X163094313Y-122373845D01*
X163092725Y-122433621D01*
X163090132Y-122476502D01*
X163086291Y-122506056D01*
X163080958Y-122525852D01*
X163073890Y-122539457D01*
X163064842Y-122550440D01*
X163058831Y-122556641D01*
X163047874Y-122565277D01*
X163032750Y-122571816D01*
X163009760Y-122576550D01*
X162975204Y-122579769D01*
X162925386Y-122581766D01*
X162856604Y-122582831D01*
X162765161Y-122583256D01*
X162647357Y-122583334D01*
X162621163Y-122583325D01*
X162505302Y-122582970D01*
X162415232Y-122581951D01*
X162347393Y-122580068D01*
X162298224Y-122577123D01*
X162264162Y-122572919D01*
X162241646Y-122567256D01*
X162227115Y-122559937D01*
X162213145Y-122546642D01*
X162195490Y-122505214D01*
X162197064Y-122457434D01*
X162218585Y-122415434D01*
X162221500Y-122412404D01*
X162233066Y-122404059D01*
X162250829Y-122397847D01*
X162278765Y-122393458D01*
X162320851Y-122390584D01*
X162381065Y-122388914D01*
X162463382Y-122388139D01*
X162571780Y-122387949D01*
X162900102Y-122387949D01*
X162900102Y-122177535D01*
X162683838Y-122177535D01*
X162636350Y-122177428D01*
X162562100Y-122176366D01*
X162509993Y-122173697D01*
X162474774Y-122168849D01*
X162451185Y-122161249D01*
X162433971Y-122150325D01*
X162429121Y-122146086D01*
X162404614Y-122104847D01*
X162403770Y-122056471D01*
X162427120Y-122011711D01*
X162427203Y-122011620D01*
X162440078Y-122000135D01*
X162457777Y-121992073D01*
X162485346Y-121986839D01*
X162527831Y-121983837D01*
X162590279Y-121982473D01*
X162677737Y-121982150D01*
X162901602Y-121982150D01*
X162897094Y-121895730D01*
X162892587Y-121809310D01*
X162570295Y-121805245D01*
X162536989Y-121804809D01*
X162428324Y-121802839D01*
X162345354Y-121799665D01*
X162284626Y-121794345D01*
X162242685Y-121785940D01*
X162216078Y-121773506D01*
X162201349Y-121756103D01*
X162195045Y-121732790D01*
X162193711Y-121702626D01*
X162193719Y-121699476D01*
X162195255Y-121672808D01*
X162201643Y-121651782D01*
X162216032Y-121635731D01*
X162241573Y-121623984D01*
X162281419Y-121615874D01*
X162338718Y-121610730D01*
X162416623Y-121607884D01*
X162518284Y-121606667D01*
X162646852Y-121606410D01*
X163033186Y-121606410D01*
X163064336Y-121646011D01*
G37*
X169291020Y-121606432D02*
X169393663Y-121606688D01*
X169472142Y-121607466D01*
X169530172Y-121609052D01*
X169571469Y-121611732D01*
X169599750Y-121615790D01*
X169618732Y-121621512D01*
X169632129Y-121629183D01*
X169643660Y-121639090D01*
X169646036Y-121641327D01*
X169655680Y-121651364D01*
X169663191Y-121663370D01*
X169668837Y-121680857D01*
X169672883Y-121707334D01*
X169675596Y-121746315D01*
X169677242Y-121801310D01*
X169678088Y-121875830D01*
X169678400Y-121973387D01*
X169678445Y-122097492D01*
X169678396Y-122194401D01*
X169678065Y-122298481D01*
X169677218Y-122378648D01*
X169675624Y-122438398D01*
X169673053Y-122481228D01*
X169669275Y-122510634D01*
X169664058Y-122530112D01*
X169657171Y-122543160D01*
X169648386Y-122553274D01*
X169643947Y-122557504D01*
X169632601Y-122565640D01*
X169616622Y-122571863D01*
X169592377Y-122576430D01*
X169556235Y-122579595D01*
X169504563Y-122581613D01*
X169433728Y-122582739D01*
X169340098Y-122583227D01*
X169220043Y-122583334D01*
X169163981Y-122583318D01*
X169055945Y-122583075D01*
X168972745Y-122582339D01*
X168910749Y-122580854D01*
X168866325Y-122578365D01*
X168835840Y-122574618D01*
X168815662Y-122569357D01*
X168802159Y-122562327D01*
X168791699Y-122553274D01*
X168772093Y-122524518D01*
X168761640Y-122485641D01*
X168768961Y-122453813D01*
X168791699Y-122418008D01*
X168798328Y-122411873D01*
X168811342Y-122403503D01*
X168830135Y-122397345D01*
X168858753Y-122393063D01*
X168901243Y-122390320D01*
X168961651Y-122388778D01*
X169044024Y-122388100D01*
X169152409Y-122387949D01*
X169483060Y-122387949D01*
X169483060Y-122177535D01*
X169268475Y-122177535D01*
X169220789Y-122177341D01*
X169133420Y-122175048D01*
X169070525Y-122169143D01*
X169028274Y-122158353D01*
X169002837Y-122141404D01*
X168990384Y-122117021D01*
X168987084Y-122083931D01*
X168988146Y-122056963D01*
X168995138Y-122027905D01*
X169012171Y-122007467D01*
X169043245Y-121994159D01*
X169092357Y-121986496D01*
X169163508Y-121982989D01*
X169260696Y-121982150D01*
X169484560Y-121982150D01*
X169475546Y-121809310D01*
X169145745Y-121805251D01*
X169062414Y-121804081D01*
X168971268Y-121802158D01*
X168903496Y-121799588D01*
X168855230Y-121796059D01*
X168822602Y-121791261D01*
X168801746Y-121784885D01*
X168788793Y-121776620D01*
X168780784Y-121768095D01*
X168763465Y-121725916D01*
X168768205Y-121678404D01*
X168794533Y-121637055D01*
X168798863Y-121633163D01*
X168810818Y-121624707D01*
X168826932Y-121618247D01*
X168850905Y-121613515D01*
X168886437Y-121610244D01*
X168937227Y-121608165D01*
X169006976Y-121607012D01*
X169099384Y-121606516D01*
X169218150Y-121606410D01*
X169291020Y-121606432D01*
G36*
X169291020Y-121606432D02*
G01*
X169393663Y-121606688D01*
X169472142Y-121607466D01*
X169530172Y-121609052D01*
X169571469Y-121611732D01*
X169599750Y-121615790D01*
X169618732Y-121621512D01*
X169632129Y-121629183D01*
X169643660Y-121639090D01*
X169646036Y-121641327D01*
X169655680Y-121651364D01*
X169663191Y-121663370D01*
X169668837Y-121680857D01*
X169672883Y-121707334D01*
X169675596Y-121746315D01*
X169677242Y-121801310D01*
X169678088Y-121875830D01*
X169678400Y-121973387D01*
X169678445Y-122097492D01*
X169678396Y-122194401D01*
X169678065Y-122298481D01*
X169677218Y-122378648D01*
X169675624Y-122438398D01*
X169673053Y-122481228D01*
X169669275Y-122510634D01*
X169664058Y-122530112D01*
X169657171Y-122543160D01*
X169648386Y-122553274D01*
X169643947Y-122557504D01*
X169632601Y-122565640D01*
X169616622Y-122571863D01*
X169592377Y-122576430D01*
X169556235Y-122579595D01*
X169504563Y-122581613D01*
X169433728Y-122582739D01*
X169340098Y-122583227D01*
X169220043Y-122583334D01*
X169163981Y-122583318D01*
X169055945Y-122583075D01*
X168972745Y-122582339D01*
X168910749Y-122580854D01*
X168866325Y-122578365D01*
X168835840Y-122574618D01*
X168815662Y-122569357D01*
X168802159Y-122562327D01*
X168791699Y-122553274D01*
X168772093Y-122524518D01*
X168761640Y-122485641D01*
X168768961Y-122453813D01*
X168791699Y-122418008D01*
X168798328Y-122411873D01*
X168811342Y-122403503D01*
X168830135Y-122397345D01*
X168858753Y-122393063D01*
X168901243Y-122390320D01*
X168961651Y-122388778D01*
X169044024Y-122388100D01*
X169152409Y-122387949D01*
X169483060Y-122387949D01*
X169483060Y-122177535D01*
X169268475Y-122177535D01*
X169220789Y-122177341D01*
X169133420Y-122175048D01*
X169070525Y-122169143D01*
X169028274Y-122158353D01*
X169002837Y-122141404D01*
X168990384Y-122117021D01*
X168987084Y-122083931D01*
X168988146Y-122056963D01*
X168995138Y-122027905D01*
X169012171Y-122007467D01*
X169043245Y-121994159D01*
X169092357Y-121986496D01*
X169163508Y-121982989D01*
X169260696Y-121982150D01*
X169484560Y-121982150D01*
X169475546Y-121809310D01*
X169145745Y-121805251D01*
X169062414Y-121804081D01*
X168971268Y-121802158D01*
X168903496Y-121799588D01*
X168855230Y-121796059D01*
X168822602Y-121791261D01*
X168801746Y-121784885D01*
X168788793Y-121776620D01*
X168780784Y-121768095D01*
X168763465Y-121725916D01*
X168768205Y-121678404D01*
X168794533Y-121637055D01*
X168798863Y-121633163D01*
X168810818Y-121624707D01*
X168826932Y-121618247D01*
X168850905Y-121613515D01*
X168886437Y-121610244D01*
X168937227Y-121608165D01*
X169006976Y-121607012D01*
X169099384Y-121606516D01*
X169218150Y-121606410D01*
X169291020Y-121606432D01*
G37*
X157885208Y-121618940D02*
X157909119Y-121643585D01*
X157936546Y-121684966D01*
X157969607Y-121745790D01*
X158010420Y-121828763D01*
X158061104Y-121936594D01*
X158080587Y-121978376D01*
X158120193Y-122062496D01*
X158154935Y-122135196D01*
X158182886Y-122192507D01*
X158202120Y-122230455D01*
X158210711Y-122245069D01*
X158212520Y-122244296D01*
X158225823Y-122225727D01*
X158248844Y-122186401D01*
X158278928Y-122130994D01*
X158313422Y-122064180D01*
X158334687Y-122022258D01*
X158373230Y-121948562D01*
X158403170Y-121896617D01*
X158427422Y-121862697D01*
X158448898Y-121843079D01*
X158470512Y-121834040D01*
X158495177Y-121831854D01*
X158509160Y-121832487D01*
X158530616Y-121838088D01*
X158551005Y-121852552D01*
X158573103Y-121879542D01*
X158599689Y-121922725D01*
X158633540Y-121985765D01*
X158677434Y-122072328D01*
X158690392Y-122097963D01*
X158722954Y-122160096D01*
X158749895Y-122208241D01*
X158768710Y-122238049D01*
X158776897Y-122245168D01*
X158778717Y-122240813D01*
X158791198Y-122212975D01*
X158813646Y-122163796D01*
X158844156Y-122097426D01*
X158880823Y-122018014D01*
X158921742Y-121929707D01*
X158957309Y-121853525D01*
X158996749Y-121770995D01*
X159027465Y-121710100D01*
X159051401Y-121667442D01*
X159070502Y-121639625D01*
X159086713Y-121623253D01*
X159101978Y-121614931D01*
X159114506Y-121611080D01*
X159147930Y-121610882D01*
X159184067Y-121631308D01*
X159185798Y-121632620D01*
X159215200Y-121662756D01*
X159229909Y-121692345D01*
X159229971Y-121693197D01*
X159223926Y-121716711D01*
X159206799Y-121762731D01*
X159180493Y-121827096D01*
X159146910Y-121905645D01*
X159107952Y-121994221D01*
X159065522Y-122088661D01*
X159021522Y-122184807D01*
X158977854Y-122278499D01*
X158936420Y-122365576D01*
X158899123Y-122441880D01*
X158867864Y-122503249D01*
X158844546Y-122545525D01*
X158831071Y-122564547D01*
X158785262Y-122582345D01*
X158729748Y-122573876D01*
X158722606Y-122567622D01*
X158701532Y-122538131D01*
X158671973Y-122489190D01*
X158636803Y-122425661D01*
X158598894Y-122352407D01*
X158492686Y-122140397D01*
X158395248Y-122335563D01*
X158382340Y-122361246D01*
X158346421Y-122430940D01*
X158314431Y-122490571D01*
X158289449Y-122534486D01*
X158274556Y-122557032D01*
X158273030Y-122558687D01*
X158235591Y-122579039D01*
X158188911Y-122581280D01*
X158147584Y-122564547D01*
X158144354Y-122560754D01*
X158128031Y-122533294D01*
X158101754Y-122483300D01*
X158067266Y-122414298D01*
X158026310Y-122329814D01*
X157980630Y-122233373D01*
X157931969Y-122128503D01*
X157905022Y-122069759D01*
X157856064Y-121962281D01*
X157818178Y-121877502D01*
X157790187Y-121812353D01*
X157770912Y-121763764D01*
X157759178Y-121728667D01*
X157753805Y-121703992D01*
X157753616Y-121686672D01*
X157757434Y-121673636D01*
X157776948Y-121645834D01*
X157812366Y-121618806D01*
X157813372Y-121618350D01*
X157839453Y-121609030D01*
X157862692Y-121608324D01*
X157885208Y-121618940D01*
G36*
X157885208Y-121618940D02*
G01*
X157909119Y-121643585D01*
X157936546Y-121684966D01*
X157969607Y-121745790D01*
X158010420Y-121828763D01*
X158061104Y-121936594D01*
X158080587Y-121978376D01*
X158120193Y-122062496D01*
X158154935Y-122135196D01*
X158182886Y-122192507D01*
X158202120Y-122230455D01*
X158210711Y-122245069D01*
X158212520Y-122244296D01*
X158225823Y-122225727D01*
X158248844Y-122186401D01*
X158278928Y-122130994D01*
X158313422Y-122064180D01*
X158334687Y-122022258D01*
X158373230Y-121948562D01*
X158403170Y-121896617D01*
X158427422Y-121862697D01*
X158448898Y-121843079D01*
X158470512Y-121834040D01*
X158495177Y-121831854D01*
X158509160Y-121832487D01*
X158530616Y-121838088D01*
X158551005Y-121852552D01*
X158573103Y-121879542D01*
X158599689Y-121922725D01*
X158633540Y-121985765D01*
X158677434Y-122072328D01*
X158690392Y-122097963D01*
X158722954Y-122160096D01*
X158749895Y-122208241D01*
X158768710Y-122238049D01*
X158776897Y-122245168D01*
X158778717Y-122240813D01*
X158791198Y-122212975D01*
X158813646Y-122163796D01*
X158844156Y-122097426D01*
X158880823Y-122018014D01*
X158921742Y-121929707D01*
X158957309Y-121853525D01*
X158996749Y-121770995D01*
X159027465Y-121710100D01*
X159051401Y-121667442D01*
X159070502Y-121639625D01*
X159086713Y-121623253D01*
X159101978Y-121614931D01*
X159114506Y-121611080D01*
X159147930Y-121610882D01*
X159184067Y-121631308D01*
X159185798Y-121632620D01*
X159215200Y-121662756D01*
X159229909Y-121692345D01*
X159229971Y-121693197D01*
X159223926Y-121716711D01*
X159206799Y-121762731D01*
X159180493Y-121827096D01*
X159146910Y-121905645D01*
X159107952Y-121994221D01*
X159065522Y-122088661D01*
X159021522Y-122184807D01*
X158977854Y-122278499D01*
X158936420Y-122365576D01*
X158899123Y-122441880D01*
X158867864Y-122503249D01*
X158844546Y-122545525D01*
X158831071Y-122564547D01*
X158785262Y-122582345D01*
X158729748Y-122573876D01*
X158722606Y-122567622D01*
X158701532Y-122538131D01*
X158671973Y-122489190D01*
X158636803Y-122425661D01*
X158598894Y-122352407D01*
X158492686Y-122140397D01*
X158395248Y-122335563D01*
X158382340Y-122361246D01*
X158346421Y-122430940D01*
X158314431Y-122490571D01*
X158289449Y-122534486D01*
X158274556Y-122557032D01*
X158273030Y-122558687D01*
X158235591Y-122579039D01*
X158188911Y-122581280D01*
X158147584Y-122564547D01*
X158144354Y-122560754D01*
X158128031Y-122533294D01*
X158101754Y-122483300D01*
X158067266Y-122414298D01*
X158026310Y-122329814D01*
X157980630Y-122233373D01*
X157931969Y-122128503D01*
X157905022Y-122069759D01*
X157856064Y-121962281D01*
X157818178Y-121877502D01*
X157790187Y-121812353D01*
X157770912Y-121763764D01*
X157759178Y-121728667D01*
X157753805Y-121703992D01*
X157753616Y-121686672D01*
X157757434Y-121673636D01*
X157776948Y-121645834D01*
X157812366Y-121618806D01*
X157813372Y-121618350D01*
X157839453Y-121609030D01*
X157862692Y-121608324D01*
X157885208Y-121618940D01*
G37*
X167938515Y-121607568D02*
X168026713Y-121614797D01*
X168100338Y-121627576D01*
X168168081Y-121647361D01*
X168263024Y-121691472D01*
X168331132Y-121748298D01*
X168372169Y-121817615D01*
X168385901Y-121899199D01*
X168384653Y-121940802D01*
X168376941Y-121973816D01*
X168357227Y-122002666D01*
X168319986Y-122039080D01*
X168309364Y-122048837D01*
X168277798Y-122076666D01*
X168247984Y-122099260D01*
X168215986Y-122117837D01*
X168177872Y-122133615D01*
X168129708Y-122147812D01*
X168067560Y-122161647D01*
X167987494Y-122176338D01*
X167885576Y-122193103D01*
X167757874Y-122213161D01*
X167733425Y-122217200D01*
X167650442Y-122235334D01*
X167590241Y-122256281D01*
X167555247Y-122279009D01*
X167547886Y-122302487D01*
X167551375Y-122308172D01*
X167575250Y-122328229D01*
X167612695Y-122350375D01*
X167629736Y-122358351D01*
X167658092Y-122367927D01*
X167693221Y-122374287D01*
X167740943Y-122378040D01*
X167807076Y-122379794D01*
X167897439Y-122380158D01*
X167921117Y-122380061D01*
X168011145Y-122378582D01*
X168097602Y-122375619D01*
X168171659Y-122371537D01*
X168224489Y-122366698D01*
X168271767Y-122361282D01*
X168310712Y-122360240D01*
X168335876Y-122366363D01*
X168355998Y-122380576D01*
X168360866Y-122385359D01*
X168382623Y-122427662D01*
X168380865Y-122475130D01*
X168355627Y-122515895D01*
X168328506Y-122531346D01*
X168280599Y-122548248D01*
X168224118Y-122561628D01*
X168219524Y-122562425D01*
X168162716Y-122569370D01*
X168086313Y-122575193D01*
X167999752Y-122579304D01*
X167912469Y-122581113D01*
X167890857Y-122581169D01*
X167759968Y-122577870D01*
X167653390Y-122567211D01*
X167566612Y-122547864D01*
X167495124Y-122518502D01*
X167434413Y-122477798D01*
X167379969Y-122424424D01*
X167353181Y-122389507D01*
X167337702Y-122350169D01*
X167333830Y-122297292D01*
X167334017Y-122281357D01*
X167339173Y-122237846D01*
X167355662Y-122202531D01*
X167389165Y-122161460D01*
X167417406Y-122131984D01*
X167452549Y-122101967D01*
X167492113Y-122077513D01*
X167540347Y-122057202D01*
X167601500Y-122039612D01*
X167679819Y-122023323D01*
X167779554Y-122006913D01*
X167904954Y-121988962D01*
X167965280Y-121979630D01*
X168055752Y-121960246D01*
X168121169Y-121938280D01*
X168160534Y-121914451D01*
X168172850Y-121889482D01*
X168157118Y-121864093D01*
X168112342Y-121839005D01*
X168108287Y-121837389D01*
X168046566Y-121821309D01*
X167963156Y-121810391D01*
X167865389Y-121804852D01*
X167760598Y-121804909D01*
X167656115Y-121810778D01*
X167559273Y-121822675D01*
X167554045Y-121823539D01*
X167489053Y-121833800D01*
X167446114Y-121838608D01*
X167418159Y-121837813D01*
X167398117Y-121831261D01*
X167378918Y-121818801D01*
X167377361Y-121817642D01*
X167344720Y-121777204D01*
X167338338Y-121729939D01*
X167359383Y-121683899D01*
X167365435Y-121677966D01*
X167404862Y-121657810D01*
X167467412Y-121640338D01*
X167547698Y-121625959D01*
X167640337Y-121615084D01*
X167739942Y-121608121D01*
X167841130Y-121605479D01*
X167938515Y-121607568D01*
G36*
X167938515Y-121607568D02*
G01*
X168026713Y-121614797D01*
X168100338Y-121627576D01*
X168168081Y-121647361D01*
X168263024Y-121691472D01*
X168331132Y-121748298D01*
X168372169Y-121817615D01*
X168385901Y-121899199D01*
X168384653Y-121940802D01*
X168376941Y-121973816D01*
X168357227Y-122002666D01*
X168319986Y-122039080D01*
X168309364Y-122048837D01*
X168277798Y-122076666D01*
X168247984Y-122099260D01*
X168215986Y-122117837D01*
X168177872Y-122133615D01*
X168129708Y-122147812D01*
X168067560Y-122161647D01*
X167987494Y-122176338D01*
X167885576Y-122193103D01*
X167757874Y-122213161D01*
X167733425Y-122217200D01*
X167650442Y-122235334D01*
X167590241Y-122256281D01*
X167555247Y-122279009D01*
X167547886Y-122302487D01*
X167551375Y-122308172D01*
X167575250Y-122328229D01*
X167612695Y-122350375D01*
X167629736Y-122358351D01*
X167658092Y-122367927D01*
X167693221Y-122374287D01*
X167740943Y-122378040D01*
X167807076Y-122379794D01*
X167897439Y-122380158D01*
X167921117Y-122380061D01*
X168011145Y-122378582D01*
X168097602Y-122375619D01*
X168171659Y-122371537D01*
X168224489Y-122366698D01*
X168271767Y-122361282D01*
X168310712Y-122360240D01*
X168335876Y-122366363D01*
X168355998Y-122380576D01*
X168360866Y-122385359D01*
X168382623Y-122427662D01*
X168380865Y-122475130D01*
X168355627Y-122515895D01*
X168328506Y-122531346D01*
X168280599Y-122548248D01*
X168224118Y-122561628D01*
X168219524Y-122562425D01*
X168162716Y-122569370D01*
X168086313Y-122575193D01*
X167999752Y-122579304D01*
X167912469Y-122581113D01*
X167890857Y-122581169D01*
X167759968Y-122577870D01*
X167653390Y-122567211D01*
X167566612Y-122547864D01*
X167495124Y-122518502D01*
X167434413Y-122477798D01*
X167379969Y-122424424D01*
X167353181Y-122389507D01*
X167337702Y-122350169D01*
X167333830Y-122297292D01*
X167334017Y-122281357D01*
X167339173Y-122237846D01*
X167355662Y-122202531D01*
X167389165Y-122161460D01*
X167417406Y-122131984D01*
X167452549Y-122101967D01*
X167492113Y-122077513D01*
X167540347Y-122057202D01*
X167601500Y-122039612D01*
X167679819Y-122023323D01*
X167779554Y-122006913D01*
X167904954Y-121988962D01*
X167965280Y-121979630D01*
X168055752Y-121960246D01*
X168121169Y-121938280D01*
X168160534Y-121914451D01*
X168172850Y-121889482D01*
X168157118Y-121864093D01*
X168112342Y-121839005D01*
X168108287Y-121837389D01*
X168046566Y-121821309D01*
X167963156Y-121810391D01*
X167865389Y-121804852D01*
X167760598Y-121804909D01*
X167656115Y-121810778D01*
X167559273Y-121822675D01*
X167554045Y-121823539D01*
X167489053Y-121833800D01*
X167446114Y-121838608D01*
X167418159Y-121837813D01*
X167398117Y-121831261D01*
X167378918Y-121818801D01*
X167377361Y-121817642D01*
X167344720Y-121777204D01*
X167338338Y-121729939D01*
X167359383Y-121683899D01*
X167365435Y-121677966D01*
X167404862Y-121657810D01*
X167467412Y-121640338D01*
X167547698Y-121625959D01*
X167640337Y-121615084D01*
X167739942Y-121608121D01*
X167841130Y-121605479D01*
X167938515Y-121607568D01*
G37*
X162773834Y-114566031D02*
X163017638Y-114588413D01*
X163244132Y-114633551D01*
X163461742Y-114703345D01*
X163678891Y-114799696D01*
X163893845Y-114922715D01*
X164124534Y-115090422D01*
X164338459Y-115284323D01*
X164530911Y-115499618D01*
X164697180Y-115731507D01*
X164832553Y-115975190D01*
X164844841Y-116001258D01*
X164947750Y-116252881D01*
X165025946Y-116514345D01*
X165080439Y-116790646D01*
X165112241Y-117086779D01*
X165122360Y-117407739D01*
X165110056Y-117739528D01*
X165071001Y-118066276D01*
X165004590Y-118372149D01*
X164910227Y-118659317D01*
X164787320Y-118929949D01*
X164635273Y-119186214D01*
X164492450Y-119382000D01*
X164295243Y-119602289D01*
X164080296Y-119790974D01*
X163847703Y-119947993D01*
X163597558Y-120073285D01*
X163329957Y-120166786D01*
X163044992Y-120228437D01*
X163041740Y-120228917D01*
X162986862Y-120233732D01*
X162904049Y-120237304D01*
X162800958Y-120239465D01*
X162685246Y-120240050D01*
X162564572Y-120238891D01*
X162479997Y-120237192D01*
X162354512Y-120233258D01*
X162253958Y-120227626D01*
X162171083Y-120219694D01*
X162098634Y-120208863D01*
X162029357Y-120194530D01*
X161951416Y-120176007D01*
X161870099Y-120154914D01*
X161796556Y-120132787D01*
X161724112Y-120107033D01*
X161646093Y-120075060D01*
X161555825Y-120034278D01*
X161446631Y-119982093D01*
X161311839Y-119915915D01*
X160939036Y-119731677D01*
X161237628Y-119241231D01*
X161276719Y-119177041D01*
X161346950Y-119061810D01*
X161409811Y-118958794D01*
X161463004Y-118871748D01*
X161504233Y-118804432D01*
X161531200Y-118760601D01*
X161541607Y-118744015D01*
X161544502Y-118744510D01*
X161567820Y-118760742D01*
X161608786Y-118794429D01*
X161660927Y-118840345D01*
X161753787Y-118919678D01*
X161919562Y-119036990D01*
X162080403Y-119118771D01*
X162196631Y-119159611D01*
X162393222Y-119201348D01*
X162586378Y-119208746D01*
X162773299Y-119182309D01*
X162951183Y-119122540D01*
X163117230Y-119029943D01*
X163268637Y-118905022D01*
X163352886Y-118813014D01*
X163471574Y-118642831D01*
X163568964Y-118445342D01*
X163645519Y-118219536D01*
X163701707Y-117964401D01*
X163704256Y-117948562D01*
X163716033Y-117845903D01*
X163724800Y-117718351D01*
X163730486Y-117574622D01*
X163733021Y-117423431D01*
X163732333Y-117273493D01*
X163728352Y-117133524D01*
X163721006Y-117012241D01*
X163710225Y-116918357D01*
X163668900Y-116705692D01*
X163599365Y-116457270D01*
X163511915Y-116239781D01*
X163406665Y-116053393D01*
X163283732Y-115898273D01*
X163143235Y-115774590D01*
X162985288Y-115682512D01*
X162810010Y-115622209D01*
X162771121Y-115614724D01*
X162673666Y-115604951D01*
X162559773Y-115601761D01*
X162442204Y-115604979D01*
X162333717Y-115614429D01*
X162247072Y-115629936D01*
X162102732Y-115679313D01*
X161935228Y-115769456D01*
X161786080Y-115888084D01*
X161759756Y-115913073D01*
X161712057Y-115957285D01*
X161678345Y-115987042D01*
X161664649Y-115996941D01*
X161661277Y-115992207D01*
X161640523Y-115962313D01*
X161603028Y-115908033D01*
X161551270Y-115832962D01*
X161487728Y-115740694D01*
X161414877Y-115634823D01*
X161335197Y-115518944D01*
X161009286Y-115044817D01*
X161082092Y-115023004D01*
X161089690Y-115020532D01*
X161139145Y-115000898D01*
X161210447Y-114969239D01*
X161295228Y-114929362D01*
X161385120Y-114885076D01*
X161424292Y-114865496D01*
X161641804Y-114764409D01*
X161842283Y-114686238D01*
X162033438Y-114628985D01*
X162222981Y-114590649D01*
X162418622Y-114569231D01*
X162628072Y-114562731D01*
X162773834Y-114566031D01*
G36*
X162773834Y-114566031D02*
G01*
X163017638Y-114588413D01*
X163244132Y-114633551D01*
X163461742Y-114703345D01*
X163678891Y-114799696D01*
X163893845Y-114922715D01*
X164124534Y-115090422D01*
X164338459Y-115284323D01*
X164530911Y-115499618D01*
X164697180Y-115731507D01*
X164832553Y-115975190D01*
X164844841Y-116001258D01*
X164947750Y-116252881D01*
X165025946Y-116514345D01*
X165080439Y-116790646D01*
X165112241Y-117086779D01*
X165122360Y-117407739D01*
X165110056Y-117739528D01*
X165071001Y-118066276D01*
X165004590Y-118372149D01*
X164910227Y-118659317D01*
X164787320Y-118929949D01*
X164635273Y-119186214D01*
X164492450Y-119382000D01*
X164295243Y-119602289D01*
X164080296Y-119790974D01*
X163847703Y-119947993D01*
X163597558Y-120073285D01*
X163329957Y-120166786D01*
X163044992Y-120228437D01*
X163041740Y-120228917D01*
X162986862Y-120233732D01*
X162904049Y-120237304D01*
X162800958Y-120239465D01*
X162685246Y-120240050D01*
X162564572Y-120238891D01*
X162479997Y-120237192D01*
X162354512Y-120233258D01*
X162253958Y-120227626D01*
X162171083Y-120219694D01*
X162098634Y-120208863D01*
X162029357Y-120194530D01*
X161951416Y-120176007D01*
X161870099Y-120154914D01*
X161796556Y-120132787D01*
X161724112Y-120107033D01*
X161646093Y-120075060D01*
X161555825Y-120034278D01*
X161446631Y-119982093D01*
X161311839Y-119915915D01*
X160939036Y-119731677D01*
X161237628Y-119241231D01*
X161276719Y-119177041D01*
X161346950Y-119061810D01*
X161409811Y-118958794D01*
X161463004Y-118871748D01*
X161504233Y-118804432D01*
X161531200Y-118760601D01*
X161541607Y-118744015D01*
X161544502Y-118744510D01*
X161567820Y-118760742D01*
X161608786Y-118794429D01*
X161660927Y-118840345D01*
X161753787Y-118919678D01*
X161919562Y-119036990D01*
X162080403Y-119118771D01*
X162196631Y-119159611D01*
X162393222Y-119201348D01*
X162586378Y-119208746D01*
X162773299Y-119182309D01*
X162951183Y-119122540D01*
X163117230Y-119029943D01*
X163268637Y-118905022D01*
X163352886Y-118813014D01*
X163471574Y-118642831D01*
X163568964Y-118445342D01*
X163645519Y-118219536D01*
X163701707Y-117964401D01*
X163704256Y-117948562D01*
X163716033Y-117845903D01*
X163724800Y-117718351D01*
X163730486Y-117574622D01*
X163733021Y-117423431D01*
X163732333Y-117273493D01*
X163728352Y-117133524D01*
X163721006Y-117012241D01*
X163710225Y-116918357D01*
X163668900Y-116705692D01*
X163599365Y-116457270D01*
X163511915Y-116239781D01*
X163406665Y-116053393D01*
X163283732Y-115898273D01*
X163143235Y-115774590D01*
X162985288Y-115682512D01*
X162810010Y-115622209D01*
X162771121Y-115614724D01*
X162673666Y-115604951D01*
X162559773Y-115601761D01*
X162442204Y-115604979D01*
X162333717Y-115614429D01*
X162247072Y-115629936D01*
X162102732Y-115679313D01*
X161935228Y-115769456D01*
X161786080Y-115888084D01*
X161759756Y-115913073D01*
X161712057Y-115957285D01*
X161678345Y-115987042D01*
X161664649Y-115996941D01*
X161661277Y-115992207D01*
X161640523Y-115962313D01*
X161603028Y-115908033D01*
X161551270Y-115832962D01*
X161487728Y-115740694D01*
X161414877Y-115634823D01*
X161335197Y-115518944D01*
X161009286Y-115044817D01*
X161082092Y-115023004D01*
X161089690Y-115020532D01*
X161139145Y-115000898D01*
X161210447Y-114969239D01*
X161295228Y-114929362D01*
X161385120Y-114885076D01*
X161424292Y-114865496D01*
X161641804Y-114764409D01*
X161842283Y-114686238D01*
X162033438Y-114628985D01*
X162222981Y-114590649D01*
X162418622Y-114569231D01*
X162628072Y-114562731D01*
X162773834Y-114566031D01*
G37*
X156847105Y-118346537D02*
X156843255Y-118514433D01*
X156832247Y-118662502D01*
X156813229Y-118798798D01*
X156785349Y-118931375D01*
X156747754Y-119068286D01*
X156690743Y-119231936D01*
X156586036Y-119452857D01*
X156457598Y-119650734D01*
X156307393Y-119823697D01*
X156137387Y-119969876D01*
X155949545Y-120087401D01*
X155745832Y-120174402D01*
X155528212Y-120229009D01*
X155525593Y-120229447D01*
X155366553Y-120244750D01*
X155191809Y-120242707D01*
X155013820Y-120224579D01*
X154845046Y-120191624D01*
X154697948Y-120145101D01*
X154635161Y-120116791D01*
X154553387Y-120073761D01*
X154469359Y-120024546D01*
X154391845Y-119974563D01*
X154329612Y-119929229D01*
X154291429Y-119893960D01*
X154282663Y-119884277D01*
X154272214Y-119880892D01*
X154265229Y-119897696D01*
X154260082Y-119940045D01*
X154255143Y-120013295D01*
X154246072Y-120165929D01*
X152856360Y-120175433D01*
X152904439Y-120093393D01*
X152907305Y-120088543D01*
X152921285Y-120065772D01*
X152933969Y-120045487D01*
X152945423Y-120025925D01*
X152955715Y-120005324D01*
X152964915Y-119981920D01*
X152973090Y-119953953D01*
X152980309Y-119919660D01*
X152986640Y-119877278D01*
X152992151Y-119825046D01*
X152996910Y-119761200D01*
X153000985Y-119683979D01*
X153004446Y-119591620D01*
X153007359Y-119482361D01*
X153009794Y-119354440D01*
X153011818Y-119206094D01*
X153013501Y-119035562D01*
X153014909Y-118841081D01*
X153016112Y-118620888D01*
X153017177Y-118373221D01*
X153018173Y-118096318D01*
X153019168Y-117788417D01*
X153020231Y-117447756D01*
X153021167Y-117154584D01*
X154336786Y-117154584D01*
X154336786Y-119040556D01*
X154427500Y-119100057D01*
X154462386Y-119121491D01*
X154542265Y-119164311D01*
X154618000Y-119198410D01*
X154651168Y-119209955D01*
X154756705Y-119233004D01*
X154890143Y-119244773D01*
X154957996Y-119247222D01*
X155020980Y-119246666D01*
X155067866Y-119240375D01*
X155109920Y-119226626D01*
X155158409Y-119203692D01*
X155251595Y-119142259D01*
X155332324Y-119055358D01*
X155396945Y-118943369D01*
X155446073Y-118804539D01*
X155480321Y-118637111D01*
X155500306Y-118439329D01*
X155506641Y-118209440D01*
X155506333Y-118157175D01*
X155497225Y-117915015D01*
X155475109Y-117704302D01*
X155439447Y-117522814D01*
X155389701Y-117368327D01*
X155325333Y-117238619D01*
X155245805Y-117131466D01*
X155212812Y-117098763D01*
X155110560Y-117030632D01*
X154990526Y-116989173D01*
X154857910Y-116974622D01*
X154717913Y-116987214D01*
X154575733Y-117027185D01*
X154436572Y-117094771D01*
X154336786Y-117154584D01*
X153021167Y-117154584D01*
X153021429Y-117072572D01*
X153030500Y-114305786D01*
X153751679Y-114301042D01*
X153804124Y-114300723D01*
X153958429Y-114300089D01*
X154099564Y-114299961D01*
X154223677Y-114300311D01*
X154326915Y-114301112D01*
X154405426Y-114302340D01*
X154455357Y-114303967D01*
X154472857Y-114305967D01*
X154470618Y-114312305D01*
X154453917Y-114342356D01*
X154426255Y-114386057D01*
X154423495Y-114390235D01*
X154402048Y-114423977D01*
X154384065Y-114456806D01*
X154369242Y-114492105D01*
X154357274Y-114533255D01*
X154347856Y-114583638D01*
X154340683Y-114646634D01*
X154335450Y-114725627D01*
X154331852Y-114823997D01*
X154329584Y-114945126D01*
X154328342Y-115092396D01*
X154327821Y-115269188D01*
X154327714Y-115478884D01*
X154327905Y-115642603D01*
X154328487Y-115803339D01*
X154329419Y-115949083D01*
X154330659Y-116076286D01*
X154332164Y-116181400D01*
X154333893Y-116260875D01*
X154335802Y-116311163D01*
X154337850Y-116328714D01*
X154344455Y-116325990D01*
X154373490Y-116306807D01*
X154414957Y-116275303D01*
X154475072Y-116232936D01*
X154588021Y-116170511D01*
X154717116Y-116114828D01*
X154850309Y-116071525D01*
X154962215Y-116049444D01*
X155101587Y-116035368D01*
X155252426Y-116030492D01*
X155403093Y-116034820D01*
X155541946Y-116048359D01*
X155657345Y-116071115D01*
X155774847Y-116109447D01*
X155970869Y-116202371D01*
X156152371Y-116325908D01*
X156316004Y-116477212D01*
X156458419Y-116653440D01*
X156576270Y-116851746D01*
X156605528Y-116912556D01*
X156687518Y-117117670D01*
X156751619Y-117340285D01*
X156798642Y-117584325D01*
X156829395Y-117853713D01*
X156844690Y-118152374D01*
X156845400Y-118209440D01*
X156847105Y-118346537D01*
G36*
X156847105Y-118346537D02*
G01*
X156843255Y-118514433D01*
X156832247Y-118662502D01*
X156813229Y-118798798D01*
X156785349Y-118931375D01*
X156747754Y-119068286D01*
X156690743Y-119231936D01*
X156586036Y-119452857D01*
X156457598Y-119650734D01*
X156307393Y-119823697D01*
X156137387Y-119969876D01*
X155949545Y-120087401D01*
X155745832Y-120174402D01*
X155528212Y-120229009D01*
X155525593Y-120229447D01*
X155366553Y-120244750D01*
X155191809Y-120242707D01*
X155013820Y-120224579D01*
X154845046Y-120191624D01*
X154697948Y-120145101D01*
X154635161Y-120116791D01*
X154553387Y-120073761D01*
X154469359Y-120024546D01*
X154391845Y-119974563D01*
X154329612Y-119929229D01*
X154291429Y-119893960D01*
X154282663Y-119884277D01*
X154272214Y-119880892D01*
X154265229Y-119897696D01*
X154260082Y-119940045D01*
X154255143Y-120013295D01*
X154246072Y-120165929D01*
X152856360Y-120175433D01*
X152904439Y-120093393D01*
X152907305Y-120088543D01*
X152921285Y-120065772D01*
X152933969Y-120045487D01*
X152945423Y-120025925D01*
X152955715Y-120005324D01*
X152964915Y-119981920D01*
X152973090Y-119953953D01*
X152980309Y-119919660D01*
X152986640Y-119877278D01*
X152992151Y-119825046D01*
X152996910Y-119761200D01*
X153000985Y-119683979D01*
X153004446Y-119591620D01*
X153007359Y-119482361D01*
X153009794Y-119354440D01*
X153011818Y-119206094D01*
X153013501Y-119035562D01*
X153014909Y-118841081D01*
X153016112Y-118620888D01*
X153017177Y-118373221D01*
X153018173Y-118096318D01*
X153019168Y-117788417D01*
X153020231Y-117447756D01*
X153021167Y-117154584D01*
X154336786Y-117154584D01*
X154336786Y-119040556D01*
X154427500Y-119100057D01*
X154462386Y-119121491D01*
X154542265Y-119164311D01*
X154618000Y-119198410D01*
X154651168Y-119209955D01*
X154756705Y-119233004D01*
X154890143Y-119244773D01*
X154957996Y-119247222D01*
X155020980Y-119246666D01*
X155067866Y-119240375D01*
X155109920Y-119226626D01*
X155158409Y-119203692D01*
X155251595Y-119142259D01*
X155332324Y-119055358D01*
X155396945Y-118943369D01*
X155446073Y-118804539D01*
X155480321Y-118637111D01*
X155500306Y-118439329D01*
X155506641Y-118209440D01*
X155506333Y-118157175D01*
X155497225Y-117915015D01*
X155475109Y-117704302D01*
X155439447Y-117522814D01*
X155389701Y-117368327D01*
X155325333Y-117238619D01*
X155245805Y-117131466D01*
X155212812Y-117098763D01*
X155110560Y-117030632D01*
X154990526Y-116989173D01*
X154857910Y-116974622D01*
X154717913Y-116987214D01*
X154575733Y-117027185D01*
X154436572Y-117094771D01*
X154336786Y-117154584D01*
X153021167Y-117154584D01*
X153021429Y-117072572D01*
X153030500Y-114305786D01*
X153751679Y-114301042D01*
X153804124Y-114300723D01*
X153958429Y-114300089D01*
X154099564Y-114299961D01*
X154223677Y-114300311D01*
X154326915Y-114301112D01*
X154405426Y-114302340D01*
X154455357Y-114303967D01*
X154472857Y-114305967D01*
X154470618Y-114312305D01*
X154453917Y-114342356D01*
X154426255Y-114386057D01*
X154423495Y-114390235D01*
X154402048Y-114423977D01*
X154384065Y-114456806D01*
X154369242Y-114492105D01*
X154357274Y-114533255D01*
X154347856Y-114583638D01*
X154340683Y-114646634D01*
X154335450Y-114725627D01*
X154331852Y-114823997D01*
X154329584Y-114945126D01*
X154328342Y-115092396D01*
X154327821Y-115269188D01*
X154327714Y-115478884D01*
X154327905Y-115642603D01*
X154328487Y-115803339D01*
X154329419Y-115949083D01*
X154330659Y-116076286D01*
X154332164Y-116181400D01*
X154333893Y-116260875D01*
X154335802Y-116311163D01*
X154337850Y-116328714D01*
X154344455Y-116325990D01*
X154373490Y-116306807D01*
X154414957Y-116275303D01*
X154475072Y-116232936D01*
X154588021Y-116170511D01*
X154717116Y-116114828D01*
X154850309Y-116071525D01*
X154962215Y-116049444D01*
X155101587Y-116035368D01*
X155252426Y-116030492D01*
X155403093Y-116034820D01*
X155541946Y-116048359D01*
X155657345Y-116071115D01*
X155774847Y-116109447D01*
X155970869Y-116202371D01*
X156152371Y-116325908D01*
X156316004Y-116477212D01*
X156458419Y-116653440D01*
X156576270Y-116851746D01*
X156605528Y-116912556D01*
X156687518Y-117117670D01*
X156751619Y-117340285D01*
X156798642Y-117584325D01*
X156829395Y-117853713D01*
X156844690Y-118152374D01*
X156845400Y-118209440D01*
X156847105Y-118346537D01*
G37*
X160947990Y-118917437D02*
X160939842Y-119063722D01*
X160922232Y-119199833D01*
X160895659Y-119313214D01*
X160853259Y-119429867D01*
X160754976Y-119622110D01*
X160629350Y-119791247D01*
X160477681Y-119936126D01*
X160301271Y-120055594D01*
X160101420Y-120148499D01*
X159879429Y-120213689D01*
X159788907Y-120228392D01*
X159659552Y-120238611D01*
X159518675Y-120240909D01*
X159378050Y-120235472D01*
X159249449Y-120222485D01*
X159144643Y-120202133D01*
X159091979Y-120186109D01*
X158972369Y-120139219D01*
X158850783Y-120079688D01*
X158739765Y-120013971D01*
X158651859Y-119948524D01*
X158650778Y-119947579D01*
X158602607Y-119906736D01*
X158565545Y-119877653D01*
X158547537Y-119866572D01*
X158545568Y-119869217D01*
X158541113Y-119897794D01*
X158538018Y-119951094D01*
X158536857Y-120020786D01*
X158536857Y-120175000D01*
X157856500Y-120175000D01*
X157838389Y-120174997D01*
X157686490Y-120174731D01*
X157547078Y-120174070D01*
X157424118Y-120173062D01*
X157321579Y-120171758D01*
X157243426Y-120170205D01*
X157193625Y-120168454D01*
X157176143Y-120166553D01*
X157176550Y-120164893D01*
X157187988Y-120140377D01*
X157211962Y-120094317D01*
X157244179Y-120035018D01*
X157312215Y-119911929D01*
X157322190Y-118696689D01*
X158609429Y-118696689D01*
X158609935Y-118792703D01*
X158612387Y-118893587D01*
X158617190Y-118966507D01*
X158624695Y-119016212D01*
X158635250Y-119047449D01*
X158648828Y-119069755D01*
X158699962Y-119130561D01*
X158768475Y-119193863D01*
X158843568Y-119250265D01*
X158914440Y-119290370D01*
X158953761Y-119305085D01*
X159044302Y-119324677D01*
X159162555Y-119334694D01*
X159287232Y-119333177D01*
X159405627Y-119312574D01*
X159504449Y-119270011D01*
X159589948Y-119203571D01*
X159614000Y-119178995D01*
X159676622Y-119095185D01*
X159710504Y-119004850D01*
X159720679Y-118896151D01*
X159717922Y-118838725D01*
X159690661Y-118720507D01*
X159633390Y-118619039D01*
X159545068Y-118533179D01*
X159424651Y-118461784D01*
X159271097Y-118403714D01*
X159209193Y-118388475D01*
X159134251Y-118378041D01*
X159039937Y-118372246D01*
X158917857Y-118370298D01*
X158898026Y-118370299D01*
X158806696Y-118371414D01*
X158728244Y-118374108D01*
X158670471Y-118378029D01*
X158641179Y-118382824D01*
X158637808Y-118384380D01*
X158626910Y-118394154D01*
X158619192Y-118413794D01*
X158614119Y-118448585D01*
X158611157Y-118503809D01*
X158609772Y-118584750D01*
X158609429Y-118696689D01*
X157322190Y-118696689D01*
X157322714Y-118632857D01*
X157324275Y-118446561D01*
X157326458Y-118208965D01*
X157328750Y-118002698D01*
X157331335Y-117824842D01*
X157334400Y-117672481D01*
X157338128Y-117542696D01*
X157342705Y-117432572D01*
X157348316Y-117339190D01*
X157355147Y-117259635D01*
X157363383Y-117190988D01*
X157373208Y-117130333D01*
X157384808Y-117074752D01*
X157398368Y-117021329D01*
X157414073Y-116967146D01*
X157432109Y-116909286D01*
X157503161Y-116727898D01*
X157600464Y-116560258D01*
X157721641Y-116416732D01*
X157867803Y-116296570D01*
X158040057Y-116199020D01*
X158239515Y-116123331D01*
X158467285Y-116068753D01*
X158724477Y-116034535D01*
X158814368Y-116027730D01*
X158965760Y-116022755D01*
X159115814Y-116027235D01*
X159271554Y-116041927D01*
X159440005Y-116067584D01*
X159628193Y-116104962D01*
X159843143Y-116154818D01*
X159892828Y-116166881D01*
X160017601Y-116196565D01*
X160135861Y-116223898D01*
X160240436Y-116247263D01*
X160324154Y-116265047D01*
X160379845Y-116275636D01*
X160508333Y-116296740D01*
X160327695Y-116734549D01*
X160282512Y-116843859D01*
X160238061Y-116950969D01*
X160199923Y-117042418D01*
X160169969Y-117113733D01*
X160150071Y-117160437D01*
X160142103Y-117178058D01*
X160140850Y-117178310D01*
X160117758Y-117170443D01*
X160072353Y-117150283D01*
X160012824Y-117121417D01*
X159889096Y-117065203D01*
X159718837Y-117003740D01*
X159544578Y-116956670D01*
X159373133Y-116925177D01*
X159211317Y-116910443D01*
X159065944Y-116913650D01*
X158943829Y-116935979D01*
X158858601Y-116971409D01*
X158761809Y-117044017D01*
X158687297Y-117142518D01*
X158637199Y-117263883D01*
X158613649Y-117405080D01*
X158605355Y-117535215D01*
X159038285Y-117536400D01*
X159184285Y-117537624D01*
X159345771Y-117541972D01*
X159483725Y-117550178D01*
X159605281Y-117563039D01*
X159717577Y-117581354D01*
X159827747Y-117605919D01*
X159942929Y-117637533D01*
X160115268Y-117697709D01*
X160317975Y-117796806D01*
X160495876Y-117918190D01*
X160647217Y-118060155D01*
X160770243Y-118220993D01*
X160863199Y-118398997D01*
X160924330Y-118592460D01*
X160933904Y-118644565D01*
X160946177Y-118773533D01*
X160947722Y-118896151D01*
X160947990Y-118917437D01*
G36*
X160947990Y-118917437D02*
G01*
X160939842Y-119063722D01*
X160922232Y-119199833D01*
X160895659Y-119313214D01*
X160853259Y-119429867D01*
X160754976Y-119622110D01*
X160629350Y-119791247D01*
X160477681Y-119936126D01*
X160301271Y-120055594D01*
X160101420Y-120148499D01*
X159879429Y-120213689D01*
X159788907Y-120228392D01*
X159659552Y-120238611D01*
X159518675Y-120240909D01*
X159378050Y-120235472D01*
X159249449Y-120222485D01*
X159144643Y-120202133D01*
X159091979Y-120186109D01*
X158972369Y-120139219D01*
X158850783Y-120079688D01*
X158739765Y-120013971D01*
X158651859Y-119948524D01*
X158650778Y-119947579D01*
X158602607Y-119906736D01*
X158565545Y-119877653D01*
X158547537Y-119866572D01*
X158545568Y-119869217D01*
X158541113Y-119897794D01*
X158538018Y-119951094D01*
X158536857Y-120020786D01*
X158536857Y-120175000D01*
X157856500Y-120175000D01*
X157838389Y-120174997D01*
X157686490Y-120174731D01*
X157547078Y-120174070D01*
X157424118Y-120173062D01*
X157321579Y-120171758D01*
X157243426Y-120170205D01*
X157193625Y-120168454D01*
X157176143Y-120166553D01*
X157176550Y-120164893D01*
X157187988Y-120140377D01*
X157211962Y-120094317D01*
X157244179Y-120035018D01*
X157312215Y-119911929D01*
X157322190Y-118696689D01*
X158609429Y-118696689D01*
X158609935Y-118792703D01*
X158612387Y-118893587D01*
X158617190Y-118966507D01*
X158624695Y-119016212D01*
X158635250Y-119047449D01*
X158648828Y-119069755D01*
X158699962Y-119130561D01*
X158768475Y-119193863D01*
X158843568Y-119250265D01*
X158914440Y-119290370D01*
X158953761Y-119305085D01*
X159044302Y-119324677D01*
X159162555Y-119334694D01*
X159287232Y-119333177D01*
X159405627Y-119312574D01*
X159504449Y-119270011D01*
X159589948Y-119203571D01*
X159614000Y-119178995D01*
X159676622Y-119095185D01*
X159710504Y-119004850D01*
X159720679Y-118896151D01*
X159717922Y-118838725D01*
X159690661Y-118720507D01*
X159633390Y-118619039D01*
X159545068Y-118533179D01*
X159424651Y-118461784D01*
X159271097Y-118403714D01*
X159209193Y-118388475D01*
X159134251Y-118378041D01*
X159039937Y-118372246D01*
X158917857Y-118370298D01*
X158898026Y-118370299D01*
X158806696Y-118371414D01*
X158728244Y-118374108D01*
X158670471Y-118378029D01*
X158641179Y-118382824D01*
X158637808Y-118384380D01*
X158626910Y-118394154D01*
X158619192Y-118413794D01*
X158614119Y-118448585D01*
X158611157Y-118503809D01*
X158609772Y-118584750D01*
X158609429Y-118696689D01*
X157322190Y-118696689D01*
X157322714Y-118632857D01*
X157324275Y-118446561D01*
X157326458Y-118208965D01*
X157328750Y-118002698D01*
X157331335Y-117824842D01*
X157334400Y-117672481D01*
X157338128Y-117542696D01*
X157342705Y-117432572D01*
X157348316Y-117339190D01*
X157355147Y-117259635D01*
X157363383Y-117190988D01*
X157373208Y-117130333D01*
X157384808Y-117074752D01*
X157398368Y-117021329D01*
X157414073Y-116967146D01*
X157432109Y-116909286D01*
X157503161Y-116727898D01*
X157600464Y-116560258D01*
X157721641Y-116416732D01*
X157867803Y-116296570D01*
X158040057Y-116199020D01*
X158239515Y-116123331D01*
X158467285Y-116068753D01*
X158724477Y-116034535D01*
X158814368Y-116027730D01*
X158965760Y-116022755D01*
X159115814Y-116027235D01*
X159271554Y-116041927D01*
X159440005Y-116067584D01*
X159628193Y-116104962D01*
X159843143Y-116154818D01*
X159892828Y-116166881D01*
X160017601Y-116196565D01*
X160135861Y-116223898D01*
X160240436Y-116247263D01*
X160324154Y-116265047D01*
X160379845Y-116275636D01*
X160508333Y-116296740D01*
X160327695Y-116734549D01*
X160282512Y-116843859D01*
X160238061Y-116950969D01*
X160199923Y-117042418D01*
X160169969Y-117113733D01*
X160150071Y-117160437D01*
X160142103Y-117178058D01*
X160140850Y-117178310D01*
X160117758Y-117170443D01*
X160072353Y-117150283D01*
X160012824Y-117121417D01*
X159889096Y-117065203D01*
X159718837Y-117003740D01*
X159544578Y-116956670D01*
X159373133Y-116925177D01*
X159211317Y-116910443D01*
X159065944Y-116913650D01*
X158943829Y-116935979D01*
X158858601Y-116971409D01*
X158761809Y-117044017D01*
X158687297Y-117142518D01*
X158637199Y-117263883D01*
X158613649Y-117405080D01*
X158605355Y-117535215D01*
X159038285Y-117536400D01*
X159184285Y-117537624D01*
X159345771Y-117541972D01*
X159483725Y-117550178D01*
X159605281Y-117563039D01*
X159717577Y-117581354D01*
X159827747Y-117605919D01*
X159942929Y-117637533D01*
X160115268Y-117697709D01*
X160317975Y-117796806D01*
X160495876Y-117918190D01*
X160647217Y-118060155D01*
X160770243Y-118220993D01*
X160863199Y-118398997D01*
X160924330Y-118592460D01*
X160933904Y-118644565D01*
X160946177Y-118773533D01*
X160947722Y-118896151D01*
X160947990Y-118917437D01*
G37*
X173119428Y-120210860D02*
X173117560Y-120351553D01*
X173115241Y-120472746D01*
X173112425Y-120575940D01*
X173109064Y-120662635D01*
X173105110Y-120734332D01*
X173100517Y-120792530D01*
X173095238Y-120838730D01*
X173089225Y-120874433D01*
X173082430Y-120901137D01*
X173074808Y-120920345D01*
X173066309Y-120933555D01*
X173056889Y-120942268D01*
X173046498Y-120947985D01*
X173035090Y-120952206D01*
X173022618Y-120956430D01*
X173009034Y-120962159D01*
X173001391Y-120965030D01*
X172987371Y-120968165D01*
X172966538Y-120971037D01*
X172937421Y-120973659D01*
X172898544Y-120976040D01*
X172848434Y-120978194D01*
X172785617Y-120980130D01*
X172708620Y-120981862D01*
X172615969Y-120983400D01*
X172506190Y-120984756D01*
X172377810Y-120985941D01*
X172229354Y-120986968D01*
X172059350Y-120987846D01*
X171866323Y-120988589D01*
X171648800Y-120989207D01*
X171405308Y-120989713D01*
X171134371Y-120990116D01*
X170834517Y-120990430D01*
X170504273Y-120990665D01*
X170142164Y-120990834D01*
X169746716Y-120990947D01*
X169316456Y-120991016D01*
X169180108Y-120991029D01*
X168759186Y-120991038D01*
X168372647Y-120990985D01*
X168019034Y-120990860D01*
X167696890Y-120990652D01*
X167404761Y-120990351D01*
X167141188Y-120989946D01*
X166904716Y-120989426D01*
X166693890Y-120988782D01*
X166507251Y-120988002D01*
X166343345Y-120987076D01*
X166200715Y-120985993D01*
X166077905Y-120984743D01*
X165973458Y-120983315D01*
X165885919Y-120981698D01*
X165813830Y-120979883D01*
X165755736Y-120977858D01*
X165710180Y-120975613D01*
X165675707Y-120973137D01*
X165650859Y-120970420D01*
X165634181Y-120967451D01*
X165624217Y-120964220D01*
X165621046Y-120962782D01*
X165608067Y-120958058D01*
X165596165Y-120954608D01*
X165585292Y-120950930D01*
X165575398Y-120945521D01*
X165566437Y-120936879D01*
X165558359Y-120923502D01*
X165551116Y-120903886D01*
X165544661Y-120876531D01*
X165538945Y-120839933D01*
X165533919Y-120792590D01*
X165529536Y-120733000D01*
X165525747Y-120659659D01*
X165522504Y-120571067D01*
X165519759Y-120465720D01*
X165517463Y-120342117D01*
X165515568Y-120198754D01*
X165514946Y-120132367D01*
X165993373Y-120132367D01*
X165993898Y-120138725D01*
X166003521Y-120143877D01*
X166025264Y-120147950D01*
X166062148Y-120151070D01*
X166117193Y-120153365D01*
X166193419Y-120154959D01*
X166293848Y-120155979D01*
X166421501Y-120156551D01*
X166579398Y-120156802D01*
X166770559Y-120156857D01*
X167571314Y-120156857D01*
X167503621Y-120034393D01*
X167435929Y-119911929D01*
X167435929Y-116355929D01*
X167503621Y-116233465D01*
X167571314Y-116111000D01*
X166139993Y-116111000D01*
X166134818Y-117993322D01*
X166129643Y-119875643D01*
X166078903Y-119984008D01*
X166052151Y-120037719D01*
X166021860Y-120091524D01*
X165998984Y-120124615D01*
X165998926Y-120124679D01*
X165993373Y-120132367D01*
X165514946Y-120132367D01*
X165514026Y-120034129D01*
X165512789Y-119846740D01*
X165511808Y-119635085D01*
X165511035Y-119397661D01*
X165510422Y-119132966D01*
X165509921Y-118839498D01*
X165509484Y-118515753D01*
X165509061Y-118160230D01*
X165508605Y-117771426D01*
X165508068Y-117347840D01*
X165507999Y-117296560D01*
X165507400Y-116875657D01*
X165506827Y-116489362D01*
X165506323Y-116136172D01*
X165505930Y-115814584D01*
X165505690Y-115523094D01*
X165505646Y-115260200D01*
X165505840Y-115024398D01*
X165506314Y-114814186D01*
X165507112Y-114628060D01*
X165508274Y-114464517D01*
X165509844Y-114322055D01*
X165511864Y-114199170D01*
X165514377Y-114094359D01*
X165517424Y-114006119D01*
X165521049Y-113932947D01*
X165525293Y-113873340D01*
X165530198Y-113825795D01*
X165535808Y-113788808D01*
X165542165Y-113760878D01*
X165549311Y-113740500D01*
X165557288Y-113726171D01*
X165566139Y-113716390D01*
X165575906Y-113709651D01*
X165586632Y-113704454D01*
X165598358Y-113699293D01*
X165611128Y-113692667D01*
X165614865Y-113690556D01*
X165671405Y-113670118D01*
X165733300Y-113661717D01*
X165803072Y-113661720D01*
X165804234Y-113820467D01*
X165804529Y-113838735D01*
X165826706Y-114024427D01*
X165883188Y-114199147D01*
X165973192Y-114361043D01*
X166095932Y-114508265D01*
X166161798Y-114568311D01*
X166308454Y-114667838D01*
X166468470Y-114737242D01*
X166637185Y-114776487D01*
X166809939Y-114785537D01*
X166982072Y-114764353D01*
X167148922Y-114712899D01*
X167286080Y-114641429D01*
X167893127Y-114641429D01*
X167972957Y-114698862D01*
X168040470Y-114752841D01*
X168135603Y-114840886D01*
X168243507Y-114951230D01*
X168360097Y-115079670D01*
X168481285Y-115222000D01*
X168512494Y-115260062D01*
X168565629Y-115325343D01*
X168635083Y-115410988D01*
X168718556Y-115514140D01*
X168813746Y-115631939D01*
X168918354Y-115761528D01*
X169030077Y-115900047D01*
X169146615Y-116044639D01*
X169200067Y-116111000D01*
X169265667Y-116192444D01*
X169384932Y-116340603D01*
X169502109Y-116486260D01*
X169614896Y-116626554D01*
X169720994Y-116758627D01*
X169818101Y-116879621D01*
X169903916Y-116986678D01*
X169976138Y-117076938D01*
X170032466Y-117147543D01*
X170070599Y-117195635D01*
X170088237Y-117218355D01*
X170089692Y-117226893D01*
X170084850Y-117243132D01*
X170072302Y-117268679D01*
X170050797Y-117305347D01*
X170019080Y-117354949D01*
X169975900Y-117419295D01*
X169920005Y-117500198D01*
X169850141Y-117599471D01*
X169765057Y-117718926D01*
X169663499Y-117860374D01*
X169544216Y-118025629D01*
X169405954Y-118216501D01*
X169247462Y-118434804D01*
X169121177Y-118608571D01*
X168967105Y-118820407D01*
X168831580Y-119006440D01*
X168713024Y-119168734D01*
X168609861Y-119309354D01*
X168520515Y-119430365D01*
X168443411Y-119533832D01*
X168376972Y-119621818D01*
X168319623Y-119696390D01*
X168269786Y-119759610D01*
X168225886Y-119813545D01*
X168186347Y-119860258D01*
X168149593Y-119901814D01*
X168114047Y-119940279D01*
X168078135Y-119977715D01*
X168040278Y-120016189D01*
X167900771Y-120156857D01*
X169776357Y-120156933D01*
X169770464Y-120043275D01*
X169770179Y-120037564D01*
X169769060Y-119992127D01*
X169771181Y-119948593D01*
X169777958Y-119904576D01*
X169790812Y-119857693D01*
X169811160Y-119805558D01*
X169840420Y-119745786D01*
X169880012Y-119675994D01*
X169931353Y-119593797D01*
X169995862Y-119496809D01*
X170074957Y-119382647D01*
X170170057Y-119248925D01*
X170282581Y-119093260D01*
X170413946Y-118913265D01*
X170565572Y-118706557D01*
X171100786Y-117977911D01*
X171105501Y-118822755D01*
X171105919Y-118901562D01*
X171106656Y-119113832D01*
X171106321Y-119294381D01*
X171104519Y-119446628D01*
X171100856Y-119573988D01*
X171094936Y-119679878D01*
X171086367Y-119767715D01*
X171074751Y-119840916D01*
X171059697Y-119902898D01*
X171040807Y-119957076D01*
X171017689Y-120006869D01*
X170989947Y-120055693D01*
X170957187Y-120106964D01*
X170924256Y-120156857D01*
X172635704Y-120156857D01*
X172591496Y-120097893D01*
X172584572Y-120088565D01*
X172529221Y-120003070D01*
X172491064Y-119916644D01*
X172466008Y-119817613D01*
X172449959Y-119694304D01*
X172449518Y-119688929D01*
X172447189Y-119638067D01*
X172445087Y-119553206D01*
X172443219Y-119436286D01*
X172441596Y-119289246D01*
X172440227Y-119114026D01*
X172439120Y-118912563D01*
X172438285Y-118686798D01*
X172437732Y-118438669D01*
X172437468Y-118170115D01*
X172437503Y-117883077D01*
X172437847Y-117579492D01*
X172438508Y-117261300D01*
X172439209Y-116975881D01*
X172439958Y-116665196D01*
X172440696Y-116387226D01*
X172441515Y-116140022D01*
X172442507Y-115921637D01*
X172443766Y-115730125D01*
X172445383Y-115563537D01*
X172447452Y-115419925D01*
X172450065Y-115297344D01*
X172453315Y-115193844D01*
X172457293Y-115107479D01*
X172462094Y-115036301D01*
X172467809Y-114978363D01*
X172474532Y-114931717D01*
X172482354Y-114894416D01*
X172491368Y-114864512D01*
X172501667Y-114840058D01*
X172513344Y-114819106D01*
X172526492Y-114799709D01*
X172541202Y-114779920D01*
X172557567Y-114757791D01*
X172573396Y-114735615D01*
X172603991Y-114691769D01*
X172622317Y-114664107D01*
X172622759Y-114662949D01*
X172616360Y-114657718D01*
X172593779Y-114653353D01*
X172552502Y-114649788D01*
X172490017Y-114646954D01*
X172403812Y-114644787D01*
X172291373Y-114643217D01*
X172150188Y-114642179D01*
X171977745Y-114641605D01*
X171771530Y-114641429D01*
X170907060Y-114641429D01*
X170952621Y-114695574D01*
X170979026Y-114732763D01*
X171022978Y-114820446D01*
X171061495Y-114929499D01*
X171090893Y-115050468D01*
X171092766Y-115061952D01*
X171098341Y-115122492D01*
X171102563Y-115216056D01*
X171105443Y-115343292D01*
X171106992Y-115504846D01*
X171107221Y-115701368D01*
X171106143Y-115933504D01*
X171100786Y-116708508D01*
X170547429Y-116008742D01*
X170531579Y-115988698D01*
X170391253Y-115811052D01*
X170271453Y-115658914D01*
X170170270Y-115529698D01*
X170085800Y-115420817D01*
X170016135Y-115329685D01*
X169959368Y-115253714D01*
X169913594Y-115190317D01*
X169876906Y-115136908D01*
X169847396Y-115090901D01*
X169823159Y-115049707D01*
X169802288Y-115010741D01*
X169782877Y-114971415D01*
X169753015Y-114901805D01*
X169733724Y-114828372D01*
X169728592Y-114749165D01*
X169729108Y-114641429D01*
X167893127Y-114641429D01*
X167286080Y-114641429D01*
X167305830Y-114631138D01*
X167448136Y-114519032D01*
X167487695Y-114479510D01*
X167604620Y-114333175D01*
X167687588Y-114174367D01*
X167737043Y-114002063D01*
X167753429Y-113815238D01*
X167753429Y-113661715D01*
X170357830Y-113661714D01*
X170520540Y-113661707D01*
X170870089Y-113661660D01*
X171185856Y-113661626D01*
X171469588Y-113661673D01*
X171723031Y-113661872D01*
X171947931Y-113662291D01*
X172146034Y-113662998D01*
X172319087Y-113664065D01*
X172468835Y-113665558D01*
X172597025Y-113667547D01*
X172705403Y-113670102D01*
X172795715Y-113673291D01*
X172869707Y-113677183D01*
X172929125Y-113681848D01*
X172975716Y-113687354D01*
X173011226Y-113693771D01*
X173037400Y-113701167D01*
X173055986Y-113709611D01*
X173068728Y-113719173D01*
X173077374Y-113729922D01*
X173083670Y-113741926D01*
X173089360Y-113755255D01*
X173096193Y-113769978D01*
X173096316Y-113770218D01*
X173099633Y-113779856D01*
X173102676Y-113795993D01*
X173105456Y-113820121D01*
X173107985Y-113853727D01*
X173110274Y-113898301D01*
X173112334Y-113955333D01*
X173114179Y-114026311D01*
X173115817Y-114112725D01*
X173117263Y-114216064D01*
X173118526Y-114337818D01*
X173119619Y-114479475D01*
X173120553Y-114642526D01*
X173121340Y-114828458D01*
X173121991Y-115038762D01*
X173122517Y-115274927D01*
X173122931Y-115538442D01*
X173123244Y-115830797D01*
X173123467Y-116153480D01*
X173123612Y-116507981D01*
X173123691Y-116895789D01*
X173123714Y-117318393D01*
X173123715Y-117401414D01*
X173123755Y-117819614D01*
X173123817Y-118203313D01*
X173123854Y-118554009D01*
X173123817Y-118873204D01*
X173123662Y-119162398D01*
X173123339Y-119423091D01*
X173122801Y-119656784D01*
X173122001Y-119864976D01*
X173120892Y-120049168D01*
X173119916Y-120156857D01*
X173119428Y-120210860D01*
G36*
X173119428Y-120210860D02*
G01*
X173117560Y-120351553D01*
X173115241Y-120472746D01*
X173112425Y-120575940D01*
X173109064Y-120662635D01*
X173105110Y-120734332D01*
X173100517Y-120792530D01*
X173095238Y-120838730D01*
X173089225Y-120874433D01*
X173082430Y-120901137D01*
X173074808Y-120920345D01*
X173066309Y-120933555D01*
X173056889Y-120942268D01*
X173046498Y-120947985D01*
X173035090Y-120952206D01*
X173022618Y-120956430D01*
X173009034Y-120962159D01*
X173001391Y-120965030D01*
X172987371Y-120968165D01*
X172966538Y-120971037D01*
X172937421Y-120973659D01*
X172898544Y-120976040D01*
X172848434Y-120978194D01*
X172785617Y-120980130D01*
X172708620Y-120981862D01*
X172615969Y-120983400D01*
X172506190Y-120984756D01*
X172377810Y-120985941D01*
X172229354Y-120986968D01*
X172059350Y-120987846D01*
X171866323Y-120988589D01*
X171648800Y-120989207D01*
X171405308Y-120989713D01*
X171134371Y-120990116D01*
X170834517Y-120990430D01*
X170504273Y-120990665D01*
X170142164Y-120990834D01*
X169746716Y-120990947D01*
X169316456Y-120991016D01*
X169180108Y-120991029D01*
X168759186Y-120991038D01*
X168372647Y-120990985D01*
X168019034Y-120990860D01*
X167696890Y-120990652D01*
X167404761Y-120990351D01*
X167141188Y-120989946D01*
X166904716Y-120989426D01*
X166693890Y-120988782D01*
X166507251Y-120988002D01*
X166343345Y-120987076D01*
X166200715Y-120985993D01*
X166077905Y-120984743D01*
X165973458Y-120983315D01*
X165885919Y-120981698D01*
X165813830Y-120979883D01*
X165755736Y-120977858D01*
X165710180Y-120975613D01*
X165675707Y-120973137D01*
X165650859Y-120970420D01*
X165634181Y-120967451D01*
X165624217Y-120964220D01*
X165621046Y-120962782D01*
X165608067Y-120958058D01*
X165596165Y-120954608D01*
X165585292Y-120950930D01*
X165575398Y-120945521D01*
X165566437Y-120936879D01*
X165558359Y-120923502D01*
X165551116Y-120903886D01*
X165544661Y-120876531D01*
X165538945Y-120839933D01*
X165533919Y-120792590D01*
X165529536Y-120733000D01*
X165525747Y-120659659D01*
X165522504Y-120571067D01*
X165519759Y-120465720D01*
X165517463Y-120342117D01*
X165515568Y-120198754D01*
X165514946Y-120132367D01*
X165993373Y-120132367D01*
X165993898Y-120138725D01*
X166003521Y-120143877D01*
X166025264Y-120147950D01*
X166062148Y-120151070D01*
X166117193Y-120153365D01*
X166193419Y-120154959D01*
X166293848Y-120155979D01*
X166421501Y-120156551D01*
X166579398Y-120156802D01*
X166770559Y-120156857D01*
X167571314Y-120156857D01*
X167503621Y-120034393D01*
X167435929Y-119911929D01*
X167435929Y-116355929D01*
X167503621Y-116233465D01*
X167571314Y-116111000D01*
X166139993Y-116111000D01*
X166134818Y-117993322D01*
X166129643Y-119875643D01*
X166078903Y-119984008D01*
X166052151Y-120037719D01*
X166021860Y-120091524D01*
X165998984Y-120124615D01*
X165998926Y-120124679D01*
X165993373Y-120132367D01*
X165514946Y-120132367D01*
X165514026Y-120034129D01*
X165512789Y-119846740D01*
X165511808Y-119635085D01*
X165511035Y-119397661D01*
X165510422Y-119132966D01*
X165509921Y-118839498D01*
X165509484Y-118515753D01*
X165509061Y-118160230D01*
X165508605Y-117771426D01*
X165508068Y-117347840D01*
X165507999Y-117296560D01*
X165507400Y-116875657D01*
X165506827Y-116489362D01*
X165506323Y-116136172D01*
X165505930Y-115814584D01*
X165505690Y-115523094D01*
X165505646Y-115260200D01*
X165505840Y-115024398D01*
X165506314Y-114814186D01*
X165507112Y-114628060D01*
X165508274Y-114464517D01*
X165509844Y-114322055D01*
X165511864Y-114199170D01*
X165514377Y-114094359D01*
X165517424Y-114006119D01*
X165521049Y-113932947D01*
X165525293Y-113873340D01*
X165530198Y-113825795D01*
X165535808Y-113788808D01*
X165542165Y-113760878D01*
X165549311Y-113740500D01*
X165557288Y-113726171D01*
X165566139Y-113716390D01*
X165575906Y-113709651D01*
X165586632Y-113704454D01*
X165598358Y-113699293D01*
X165611128Y-113692667D01*
X165614865Y-113690556D01*
X165671405Y-113670118D01*
X165733300Y-113661717D01*
X165803072Y-113661720D01*
X165804234Y-113820467D01*
X165804529Y-113838735D01*
X165826706Y-114024427D01*
X165883188Y-114199147D01*
X165973192Y-114361043D01*
X166095932Y-114508265D01*
X166161798Y-114568311D01*
X166308454Y-114667838D01*
X166468470Y-114737242D01*
X166637185Y-114776487D01*
X166809939Y-114785537D01*
X166982072Y-114764353D01*
X167148922Y-114712899D01*
X167286080Y-114641429D01*
X167893127Y-114641429D01*
X167972957Y-114698862D01*
X168040470Y-114752841D01*
X168135603Y-114840886D01*
X168243507Y-114951230D01*
X168360097Y-115079670D01*
X168481285Y-115222000D01*
X168512494Y-115260062D01*
X168565629Y-115325343D01*
X168635083Y-115410988D01*
X168718556Y-115514140D01*
X168813746Y-115631939D01*
X168918354Y-115761528D01*
X169030077Y-115900047D01*
X169146615Y-116044639D01*
X169200067Y-116111000D01*
X169265667Y-116192444D01*
X169384932Y-116340603D01*
X169502109Y-116486260D01*
X169614896Y-116626554D01*
X169720994Y-116758627D01*
X169818101Y-116879621D01*
X169903916Y-116986678D01*
X169976138Y-117076938D01*
X170032466Y-117147543D01*
X170070599Y-117195635D01*
X170088237Y-117218355D01*
X170089692Y-117226893D01*
X170084850Y-117243132D01*
X170072302Y-117268679D01*
X170050797Y-117305347D01*
X170019080Y-117354949D01*
X169975900Y-117419295D01*
X169920005Y-117500198D01*
X169850141Y-117599471D01*
X169765057Y-117718926D01*
X169663499Y-117860374D01*
X169544216Y-118025629D01*
X169405954Y-118216501D01*
X169247462Y-118434804D01*
X169121177Y-118608571D01*
X168967105Y-118820407D01*
X168831580Y-119006440D01*
X168713024Y-119168734D01*
X168609861Y-119309354D01*
X168520515Y-119430365D01*
X168443411Y-119533832D01*
X168376972Y-119621818D01*
X168319623Y-119696390D01*
X168269786Y-119759610D01*
X168225886Y-119813545D01*
X168186347Y-119860258D01*
X168149593Y-119901814D01*
X168114047Y-119940279D01*
X168078135Y-119977715D01*
X168040278Y-120016189D01*
X167900771Y-120156857D01*
X169776357Y-120156933D01*
X169770464Y-120043275D01*
X169770179Y-120037564D01*
X169769060Y-119992127D01*
X169771181Y-119948593D01*
X169777958Y-119904576D01*
X169790812Y-119857693D01*
X169811160Y-119805558D01*
X169840420Y-119745786D01*
X169880012Y-119675994D01*
X169931353Y-119593797D01*
X169995862Y-119496809D01*
X170074957Y-119382647D01*
X170170057Y-119248925D01*
X170282581Y-119093260D01*
X170413946Y-118913265D01*
X170565572Y-118706557D01*
X171100786Y-117977911D01*
X171105501Y-118822755D01*
X171105919Y-118901562D01*
X171106656Y-119113832D01*
X171106321Y-119294381D01*
X171104519Y-119446628D01*
X171100856Y-119573988D01*
X171094936Y-119679878D01*
X171086367Y-119767715D01*
X171074751Y-119840916D01*
X171059697Y-119902898D01*
X171040807Y-119957076D01*
X171017689Y-120006869D01*
X170989947Y-120055693D01*
X170957187Y-120106964D01*
X170924256Y-120156857D01*
X172635704Y-120156857D01*
X172591496Y-120097893D01*
X172584572Y-120088565D01*
X172529221Y-120003070D01*
X172491064Y-119916644D01*
X172466008Y-119817613D01*
X172449959Y-119694304D01*
X172449518Y-119688929D01*
X172447189Y-119638067D01*
X172445087Y-119553206D01*
X172443219Y-119436286D01*
X172441596Y-119289246D01*
X172440227Y-119114026D01*
X172439120Y-118912563D01*
X172438285Y-118686798D01*
X172437732Y-118438669D01*
X172437468Y-118170115D01*
X172437503Y-117883077D01*
X172437847Y-117579492D01*
X172438508Y-117261300D01*
X172439209Y-116975881D01*
X172439958Y-116665196D01*
X172440696Y-116387226D01*
X172441515Y-116140022D01*
X172442507Y-115921637D01*
X172443766Y-115730125D01*
X172445383Y-115563537D01*
X172447452Y-115419925D01*
X172450065Y-115297344D01*
X172453315Y-115193844D01*
X172457293Y-115107479D01*
X172462094Y-115036301D01*
X172467809Y-114978363D01*
X172474532Y-114931717D01*
X172482354Y-114894416D01*
X172491368Y-114864512D01*
X172501667Y-114840058D01*
X172513344Y-114819106D01*
X172526492Y-114799709D01*
X172541202Y-114779920D01*
X172557567Y-114757791D01*
X172573396Y-114735615D01*
X172603991Y-114691769D01*
X172622317Y-114664107D01*
X172622759Y-114662949D01*
X172616360Y-114657718D01*
X172593779Y-114653353D01*
X172552502Y-114649788D01*
X172490017Y-114646954D01*
X172403812Y-114644787D01*
X172291373Y-114643217D01*
X172150188Y-114642179D01*
X171977745Y-114641605D01*
X171771530Y-114641429D01*
X170907060Y-114641429D01*
X170952621Y-114695574D01*
X170979026Y-114732763D01*
X171022978Y-114820446D01*
X171061495Y-114929499D01*
X171090893Y-115050468D01*
X171092766Y-115061952D01*
X171098341Y-115122492D01*
X171102563Y-115216056D01*
X171105443Y-115343292D01*
X171106992Y-115504846D01*
X171107221Y-115701368D01*
X171106143Y-115933504D01*
X171100786Y-116708508D01*
X170547429Y-116008742D01*
X170531579Y-115988698D01*
X170391253Y-115811052D01*
X170271453Y-115658914D01*
X170170270Y-115529698D01*
X170085800Y-115420817D01*
X170016135Y-115329685D01*
X169959368Y-115253714D01*
X169913594Y-115190317D01*
X169876906Y-115136908D01*
X169847396Y-115090901D01*
X169823159Y-115049707D01*
X169802288Y-115010741D01*
X169782877Y-114971415D01*
X169753015Y-114901805D01*
X169733724Y-114828372D01*
X169728592Y-114749165D01*
X169729108Y-114641429D01*
X167893127Y-114641429D01*
X167286080Y-114641429D01*
X167305830Y-114631138D01*
X167448136Y-114519032D01*
X167487695Y-114479510D01*
X167604620Y-114333175D01*
X167687588Y-114174367D01*
X167737043Y-114002063D01*
X167753429Y-113815238D01*
X167753429Y-113661715D01*
X170357830Y-113661714D01*
X170520540Y-113661707D01*
X170870089Y-113661660D01*
X171185856Y-113661626D01*
X171469588Y-113661673D01*
X171723031Y-113661872D01*
X171947931Y-113662291D01*
X172146034Y-113662998D01*
X172319087Y-113664065D01*
X172468835Y-113665558D01*
X172597025Y-113667547D01*
X172705403Y-113670102D01*
X172795715Y-113673291D01*
X172869707Y-113677183D01*
X172929125Y-113681848D01*
X172975716Y-113687354D01*
X173011226Y-113693771D01*
X173037400Y-113701167D01*
X173055986Y-113709611D01*
X173068728Y-113719173D01*
X173077374Y-113729922D01*
X173083670Y-113741926D01*
X173089360Y-113755255D01*
X173096193Y-113769978D01*
X173096316Y-113770218D01*
X173099633Y-113779856D01*
X173102676Y-113795993D01*
X173105456Y-113820121D01*
X173107985Y-113853727D01*
X173110274Y-113898301D01*
X173112334Y-113955333D01*
X173114179Y-114026311D01*
X173115817Y-114112725D01*
X173117263Y-114216064D01*
X173118526Y-114337818D01*
X173119619Y-114479475D01*
X173120553Y-114642526D01*
X173121340Y-114828458D01*
X173121991Y-115038762D01*
X173122517Y-115274927D01*
X173122931Y-115538442D01*
X173123244Y-115830797D01*
X173123467Y-116153480D01*
X173123612Y-116507981D01*
X173123691Y-116895789D01*
X173123714Y-117318393D01*
X173123715Y-117401414D01*
X173123755Y-117819614D01*
X173123817Y-118203313D01*
X173123854Y-118554009D01*
X173123817Y-118873204D01*
X173123662Y-119162398D01*
X173123339Y-119423091D01*
X173122801Y-119656784D01*
X173122001Y-119864976D01*
X173120892Y-120049168D01*
X173119916Y-120156857D01*
X173119428Y-120210860D01*
G37*
%TD*%
M02*
