%TF.GenerationSoftware,KiCad,Pcbnew,9.0.3*%
%TF.CreationDate,2025-08-19T23:17:00+03:00*%
%TF.ProjectId,Prj 1 - LED Torch,50726a20-3120-42d2-904c-454420546f72,0.1*%
%TF.SameCoordinates,Original*%
%TF.FileFunction,Legend,Top*%
%TF.FilePolarity,Positive*%
%FSLAX46Y46*%
G04 Gerber Fmt 4.6, Leading zero omitted, Abs format (unit mm)*
G04 Created by KiCad (PCBNEW 9.0.3) date 2025-08-19 23:17:00*
%MOMM*%
%LPD*%
G01*
G04 APERTURE LIST*
%ADD10C,0.100000*%
%ADD11C,0.150000*%
%ADD12C,0.120000*%
G04 APERTURE END LIST*
D10*
X98303884Y-120991466D02*
X99065789Y-120991466D01*
X98684836Y-121372419D02*
X98684836Y-120610514D01*
X98303884Y-114201466D02*
X99065789Y-114201466D01*
D11*
X98454819Y-113738094D02*
X97454819Y-113738094D01*
X97454819Y-113738094D02*
X97454819Y-113499999D01*
X97454819Y-113499999D02*
X97502438Y-113357142D01*
X97502438Y-113357142D02*
X97597676Y-113261904D01*
X97597676Y-113261904D02*
X97692914Y-113214285D01*
X97692914Y-113214285D02*
X97883390Y-113166666D01*
X97883390Y-113166666D02*
X98026247Y-113166666D01*
X98026247Y-113166666D02*
X98216723Y-113214285D01*
X98216723Y-113214285D02*
X98311961Y-113261904D01*
X98311961Y-113261904D02*
X98407200Y-113357142D01*
X98407200Y-113357142D02*
X98454819Y-113499999D01*
X98454819Y-113499999D02*
X98454819Y-113738094D01*
X98454819Y-112214285D02*
X98454819Y-112785713D01*
X98454819Y-112499999D02*
X97454819Y-112499999D01*
X97454819Y-112499999D02*
X97597676Y-112595237D01*
X97597676Y-112595237D02*
X97692914Y-112690475D01*
X97692914Y-112690475D02*
X97740533Y-112785713D01*
X94994819Y-117912857D02*
X94994819Y-118389047D01*
X94994819Y-118389047D02*
X93994819Y-118389047D01*
X94471009Y-117579523D02*
X94471009Y-117246190D01*
X94994819Y-117103333D02*
X94994819Y-117579523D01*
X94994819Y-117579523D02*
X93994819Y-117579523D01*
X93994819Y-117579523D02*
X93994819Y-117103333D01*
X94994819Y-116674761D02*
X93994819Y-116674761D01*
X93994819Y-116674761D02*
X93994819Y-116436666D01*
X93994819Y-116436666D02*
X94042438Y-116293809D01*
X94042438Y-116293809D02*
X94137676Y-116198571D01*
X94137676Y-116198571D02*
X94232914Y-116150952D01*
X94232914Y-116150952D02*
X94423390Y-116103333D01*
X94423390Y-116103333D02*
X94566247Y-116103333D01*
X94566247Y-116103333D02*
X94756723Y-116150952D01*
X94756723Y-116150952D02*
X94851961Y-116198571D01*
X94851961Y-116198571D02*
X94947200Y-116293809D01*
X94947200Y-116293809D02*
X94994819Y-116436666D01*
X94994819Y-116436666D02*
X94994819Y-116674761D01*
X119666667Y-113107200D02*
X119809524Y-113154819D01*
X119809524Y-113154819D02*
X120047619Y-113154819D01*
X120047619Y-113154819D02*
X120142857Y-113107200D01*
X120142857Y-113107200D02*
X120190476Y-113059580D01*
X120190476Y-113059580D02*
X120238095Y-112964342D01*
X120238095Y-112964342D02*
X120238095Y-112869104D01*
X120238095Y-112869104D02*
X120190476Y-112773866D01*
X120190476Y-112773866D02*
X120142857Y-112726247D01*
X120142857Y-112726247D02*
X120047619Y-112678628D01*
X120047619Y-112678628D02*
X119857143Y-112631009D01*
X119857143Y-112631009D02*
X119761905Y-112583390D01*
X119761905Y-112583390D02*
X119714286Y-112535771D01*
X119714286Y-112535771D02*
X119666667Y-112440533D01*
X119666667Y-112440533D02*
X119666667Y-112345295D01*
X119666667Y-112345295D02*
X119714286Y-112250057D01*
X119714286Y-112250057D02*
X119761905Y-112202438D01*
X119761905Y-112202438D02*
X119857143Y-112154819D01*
X119857143Y-112154819D02*
X120095238Y-112154819D01*
X120095238Y-112154819D02*
X120238095Y-112202438D01*
X120571429Y-112154819D02*
X120809524Y-113154819D01*
X120809524Y-113154819D02*
X121000000Y-112440533D01*
X121000000Y-112440533D02*
X121190476Y-113154819D01*
X121190476Y-113154819D02*
X121428572Y-112154819D01*
X122333333Y-113154819D02*
X121761905Y-113154819D01*
X122047619Y-113154819D02*
X122047619Y-112154819D01*
X122047619Y-112154819D02*
X121952381Y-112297676D01*
X121952381Y-112297676D02*
X121857143Y-112392914D01*
X121857143Y-112392914D02*
X121761905Y-112440533D01*
X161214285Y-125051009D02*
X161357142Y-125098628D01*
X161357142Y-125098628D02*
X161404761Y-125146247D01*
X161404761Y-125146247D02*
X161452380Y-125241485D01*
X161452380Y-125241485D02*
X161452380Y-125384342D01*
X161452380Y-125384342D02*
X161404761Y-125479580D01*
X161404761Y-125479580D02*
X161357142Y-125527200D01*
X161357142Y-125527200D02*
X161261904Y-125574819D01*
X161261904Y-125574819D02*
X160880952Y-125574819D01*
X160880952Y-125574819D02*
X160880952Y-124574819D01*
X160880952Y-124574819D02*
X161214285Y-124574819D01*
X161214285Y-124574819D02*
X161309523Y-124622438D01*
X161309523Y-124622438D02*
X161357142Y-124670057D01*
X161357142Y-124670057D02*
X161404761Y-124765295D01*
X161404761Y-124765295D02*
X161404761Y-124860533D01*
X161404761Y-124860533D02*
X161357142Y-124955771D01*
X161357142Y-124955771D02*
X161309523Y-125003390D01*
X161309523Y-125003390D02*
X161214285Y-125051009D01*
X161214285Y-125051009D02*
X160880952Y-125051009D01*
X161738095Y-124574819D02*
X162309523Y-124574819D01*
X162023809Y-125574819D02*
X162023809Y-124574819D01*
X163166666Y-125574819D02*
X162595238Y-125574819D01*
X162880952Y-125574819D02*
X162880952Y-124574819D01*
X162880952Y-124574819D02*
X162785714Y-124717676D01*
X162785714Y-124717676D02*
X162690476Y-124812914D01*
X162690476Y-124812914D02*
X162595238Y-124860533D01*
X159095236Y-106982039D02*
X159238093Y-107029658D01*
X159238093Y-107029658D02*
X159285712Y-107077277D01*
X159285712Y-107077277D02*
X159333331Y-107172515D01*
X159333331Y-107172515D02*
X159333331Y-107315372D01*
X159333331Y-107315372D02*
X159285712Y-107410610D01*
X159285712Y-107410610D02*
X159238093Y-107458230D01*
X159238093Y-107458230D02*
X159142855Y-107505849D01*
X159142855Y-107505849D02*
X158761903Y-107505849D01*
X158761903Y-107505849D02*
X158761903Y-106505849D01*
X158761903Y-106505849D02*
X159095236Y-106505849D01*
X159095236Y-106505849D02*
X159190474Y-106553468D01*
X159190474Y-106553468D02*
X159238093Y-106601087D01*
X159238093Y-106601087D02*
X159285712Y-106696325D01*
X159285712Y-106696325D02*
X159285712Y-106791563D01*
X159285712Y-106791563D02*
X159238093Y-106886801D01*
X159238093Y-106886801D02*
X159190474Y-106934420D01*
X159190474Y-106934420D02*
X159095236Y-106982039D01*
X159095236Y-106982039D02*
X158761903Y-106982039D01*
X160190474Y-107505849D02*
X160190474Y-106982039D01*
X160190474Y-106982039D02*
X160142855Y-106886801D01*
X160142855Y-106886801D02*
X160047617Y-106839182D01*
X160047617Y-106839182D02*
X159857141Y-106839182D01*
X159857141Y-106839182D02*
X159761903Y-106886801D01*
X160190474Y-107458230D02*
X160095236Y-107505849D01*
X160095236Y-107505849D02*
X159857141Y-107505849D01*
X159857141Y-107505849D02*
X159761903Y-107458230D01*
X159761903Y-107458230D02*
X159714284Y-107362991D01*
X159714284Y-107362991D02*
X159714284Y-107267753D01*
X159714284Y-107267753D02*
X159761903Y-107172515D01*
X159761903Y-107172515D02*
X159857141Y-107124896D01*
X159857141Y-107124896D02*
X160095236Y-107124896D01*
X160095236Y-107124896D02*
X160190474Y-107077277D01*
X160523808Y-106839182D02*
X160904760Y-106839182D01*
X160666665Y-106505849D02*
X160666665Y-107362991D01*
X160666665Y-107362991D02*
X160714284Y-107458230D01*
X160714284Y-107458230D02*
X160809522Y-107505849D01*
X160809522Y-107505849D02*
X160904760Y-107505849D01*
X161095237Y-106839182D02*
X161476189Y-106839182D01*
X161238094Y-106505849D02*
X161238094Y-107362991D01*
X161238094Y-107362991D02*
X161285713Y-107458230D01*
X161285713Y-107458230D02*
X161380951Y-107505849D01*
X161380951Y-107505849D02*
X161476189Y-107505849D01*
X162190475Y-107458230D02*
X162095237Y-107505849D01*
X162095237Y-107505849D02*
X161904761Y-107505849D01*
X161904761Y-107505849D02*
X161809523Y-107458230D01*
X161809523Y-107458230D02*
X161761904Y-107362991D01*
X161761904Y-107362991D02*
X161761904Y-106982039D01*
X161761904Y-106982039D02*
X161809523Y-106886801D01*
X161809523Y-106886801D02*
X161904761Y-106839182D01*
X161904761Y-106839182D02*
X162095237Y-106839182D01*
X162095237Y-106839182D02*
X162190475Y-106886801D01*
X162190475Y-106886801D02*
X162238094Y-106982039D01*
X162238094Y-106982039D02*
X162238094Y-107077277D01*
X162238094Y-107077277D02*
X161761904Y-107172515D01*
X162666666Y-107505849D02*
X162666666Y-106839182D01*
X162666666Y-107029658D02*
X162714285Y-106934420D01*
X162714285Y-106934420D02*
X162761904Y-106886801D01*
X162761904Y-106886801D02*
X162857142Y-106839182D01*
X162857142Y-106839182D02*
X162952380Y-106839182D01*
X163190476Y-106839182D02*
X163428571Y-107505849D01*
X163666666Y-106839182D02*
X163428571Y-107505849D01*
X163428571Y-107505849D02*
X163333333Y-107743944D01*
X163333333Y-107743944D02*
X163285714Y-107791563D01*
X163285714Y-107791563D02*
X163190476Y-107839182D01*
X163809524Y-107601087D02*
X164571428Y-107601087D01*
X165380952Y-107410610D02*
X165333333Y-107458230D01*
X165333333Y-107458230D02*
X165190476Y-107505849D01*
X165190476Y-107505849D02*
X165095238Y-107505849D01*
X165095238Y-107505849D02*
X164952381Y-107458230D01*
X164952381Y-107458230D02*
X164857143Y-107362991D01*
X164857143Y-107362991D02*
X164809524Y-107267753D01*
X164809524Y-107267753D02*
X164761905Y-107077277D01*
X164761905Y-107077277D02*
X164761905Y-106934420D01*
X164761905Y-106934420D02*
X164809524Y-106743944D01*
X164809524Y-106743944D02*
X164857143Y-106648706D01*
X164857143Y-106648706D02*
X164952381Y-106553468D01*
X164952381Y-106553468D02*
X165095238Y-106505849D01*
X165095238Y-106505849D02*
X165190476Y-106505849D01*
X165190476Y-106505849D02*
X165333333Y-106553468D01*
X165333333Y-106553468D02*
X165380952Y-106601087D01*
X166190476Y-107458230D02*
X166095238Y-107505849D01*
X166095238Y-107505849D02*
X165904762Y-107505849D01*
X165904762Y-107505849D02*
X165809524Y-107458230D01*
X165809524Y-107458230D02*
X165761905Y-107362991D01*
X165761905Y-107362991D02*
X165761905Y-106982039D01*
X165761905Y-106982039D02*
X165809524Y-106886801D01*
X165809524Y-106886801D02*
X165904762Y-106839182D01*
X165904762Y-106839182D02*
X166095238Y-106839182D01*
X166095238Y-106839182D02*
X166190476Y-106886801D01*
X166190476Y-106886801D02*
X166238095Y-106982039D01*
X166238095Y-106982039D02*
X166238095Y-107077277D01*
X166238095Y-107077277D02*
X165761905Y-107172515D01*
X166809524Y-107505849D02*
X166714286Y-107458230D01*
X166714286Y-107458230D02*
X166666667Y-107362991D01*
X166666667Y-107362991D02*
X166666667Y-106505849D01*
X167333334Y-107505849D02*
X167238096Y-107458230D01*
X167238096Y-107458230D02*
X167190477Y-107362991D01*
X167190477Y-107362991D02*
X167190477Y-106505849D01*
X104034819Y-117166666D02*
X103558628Y-117499999D01*
X104034819Y-117738094D02*
X103034819Y-117738094D01*
X103034819Y-117738094D02*
X103034819Y-117357142D01*
X103034819Y-117357142D02*
X103082438Y-117261904D01*
X103082438Y-117261904D02*
X103130057Y-117214285D01*
X103130057Y-117214285D02*
X103225295Y-117166666D01*
X103225295Y-117166666D02*
X103368152Y-117166666D01*
X103368152Y-117166666D02*
X103463390Y-117214285D01*
X103463390Y-117214285D02*
X103511009Y-117261904D01*
X103511009Y-117261904D02*
X103558628Y-117357142D01*
X103558628Y-117357142D02*
X103558628Y-117738094D01*
X104034819Y-116214285D02*
X104034819Y-116785713D01*
X104034819Y-116499999D02*
X103034819Y-116499999D01*
X103034819Y-116499999D02*
X103177676Y-116595237D01*
X103177676Y-116595237D02*
X103272914Y-116690475D01*
X103272914Y-116690475D02*
X103320533Y-116785713D01*
D12*
%TO.C,D1*%
X100045000Y-114710000D02*
X96955000Y-114710000D01*
X98500000Y-120260000D02*
G75*
G02*
X96955170Y-114710000I0J2990000D01*
G01*
X100044830Y-114710000D02*
G75*
G02*
X98500000Y-120260000I-1544830J-2560000D01*
G01*
X101000000Y-117270000D02*
G75*
G02*
X96000000Y-117270000I-2500000J0D01*
G01*
X96000000Y-117270000D02*
G75*
G02*
X101000000Y-117270000I2500000J0D01*
G01*
%TO.C,SW1*%
X117880000Y-118150000D02*
X117880000Y-115950000D01*
X118350000Y-120120000D02*
X123550000Y-120120000D01*
X118950000Y-113880000D02*
X123350000Y-113880000D01*
X124120000Y-115950000D02*
X124120000Y-118150000D01*
X122414214Y-117000000D02*
G75*
G02*
X119585786Y-117000000I-1414214J0D01*
G01*
X119585786Y-117000000D02*
G75*
G02*
X122414214Y-117000000I1414214J0D01*
G01*
%TO.C,BT1*%
X147690000Y-113890000D02*
X151308000Y-113890000D01*
X147690000Y-115600000D02*
X147690000Y-113890000D01*
X147690000Y-119400000D02*
X147690000Y-121110000D01*
X151308000Y-121110000D02*
X147690000Y-121110000D01*
X154152700Y-109390000D02*
X169847300Y-109390000D01*
X158140000Y-125610000D02*
X154152700Y-125610000D01*
X160340000Y-123410000D02*
X158140000Y-125610000D01*
X163660000Y-123410000D02*
X160340000Y-123410000D01*
X163660000Y-123410000D02*
X165860000Y-125610000D01*
X169847300Y-125610000D02*
X165860000Y-125610000D01*
X172692000Y-113890000D02*
X176310000Y-113890000D01*
X176310000Y-115600000D02*
X176310000Y-113890000D01*
X176310000Y-119400000D02*
X176310000Y-121110000D01*
X176310000Y-121110000D02*
X172692000Y-121110000D01*
X151308000Y-113890000D02*
G75*
G02*
X154154628Y-109388210I10692020J-3610010D01*
G01*
X154154629Y-125611789D02*
G75*
G02*
X151308000Y-121110000I7845366J8111785D01*
G01*
X169845371Y-109388211D02*
G75*
G02*
X172692000Y-113890000I-7845371J-8111789D01*
G01*
X172692000Y-121110000D02*
G75*
G02*
X169845371Y-125611789I-10692020J3610012D01*
G01*
%TO.C,R1*%
X105500000Y-114130000D02*
X105500000Y-115080000D01*
X105500000Y-119870000D02*
X105500000Y-118920000D01*
X104580000Y-118920000D02*
X106420000Y-118920000D01*
X106420000Y-115080000D01*
X104580000Y-115080000D01*
X104580000Y-118920000D01*
%TD*%
M02*
