%TF.GenerationSoftware,KiCad,Pcbnew,9.0.4*%
%TF.CreationDate,2025-10-03T00:29:53+03:00*%
%TF.ProjectId,Breadboard Power supply,42726561-6462-46f6-9172-6420506f7765,rev?*%
%TF.SameCoordinates,Original*%
%TF.FileFunction,Plated,1,2,PTH,Mixed*%
%TF.FilePolarity,Positive*%
%FSLAX46Y46*%
G04 Gerber Fmt 4.6, Leading zero omitted, Abs format (unit mm)*
G04 Created by KiCad (PCBNEW 9.0.4) date 2025-10-03 00:29:53*
%MOMM*%
%LPD*%
G01*
G04 APERTURE LIST*
%TA.AperFunction,ViaDrill*%
%ADD10C,0.300000*%
%TD*%
%TA.AperFunction,ComponentDrill*%
%ADD11C,0.700000*%
%TD*%
%TA.AperFunction,ComponentDrill*%
%ADD12C,0.800000*%
%TD*%
%TA.AperFunction,ComponentDrill*%
%ADD13C,0.900000*%
%TD*%
G04 aperture for slot hole*
%TA.AperFunction,ComponentDrill*%
%ADD14C,1.000000*%
%TD*%
%TA.AperFunction,ComponentDrill*%
%ADD15C,1.000000*%
%TD*%
%TA.AperFunction,ComponentDrill*%
%ADD16C,1.100000*%
%TD*%
%TA.AperFunction,ComponentDrill*%
%ADD17C,1.520000*%
%TD*%
G04 APERTURE END LIST*
D10*
X151571767Y-123413833D03*
X153071767Y-128663833D03*
X154986567Y-119508033D03*
X155571767Y-112663833D03*
X156571767Y-121913833D03*
X160321767Y-128413833D03*
D11*
%TO.C,R1*%
X167951767Y-98163833D03*
%TO.C,R3*%
X169271767Y-115719833D03*
%TO.C,R2*%
X169271767Y-120393433D03*
%TO.C,R1*%
X175571767Y-98163833D03*
%TO.C,R3*%
X176891767Y-115719833D03*
%TO.C,R2*%
X176891767Y-120393433D03*
D12*
%TO.C,C3*%
X153571767Y-87663833D03*
%TO.C,C2*%
X153571767Y-125663833D03*
%TO.C,C3*%
X156071767Y-87663833D03*
%TO.C,C2*%
X156071767Y-125663833D03*
%TO.C,C1*%
X159071767Y-87663833D03*
X161571767Y-87663833D03*
%TO.C,SW1*%
X170031767Y-88663833D03*
X172571767Y-88663833D03*
X175111767Y-88663833D03*
D13*
%TO.C,D1*%
X170261767Y-105915433D03*
X172801767Y-105915433D03*
D14*
%TO.C,J1*%
X158736567Y-107017033D02*
X158736567Y-105017033D01*
D15*
%TO.C,J3*%
X160463767Y-77213433D03*
%TO.C,J7*%
X160463767Y-134058633D03*
D14*
%TO.C,J1*%
X162736567Y-110717033D02*
X160736567Y-110717033D01*
D15*
%TO.C,J3*%
X163003767Y-77213433D03*
%TO.C,J7*%
X163003767Y-134058633D03*
D14*
%TO.C,J1*%
X164736567Y-107017033D02*
X164736567Y-105017033D01*
D15*
%TO.C,J3*%
X165543767Y-77213433D03*
%TO.C,J7*%
X165543767Y-134058633D03*
%TO.C,J4*%
X182256967Y-131213833D03*
X182256967Y-133753833D03*
%TO.C,J6*%
X182273367Y-77306633D03*
X182273367Y-79846633D03*
D16*
%TO.C,U2*%
X155383767Y-94536233D03*
X157923767Y-94536233D03*
X160463767Y-94536233D03*
D17*
%TO.C,J2*%
X171031767Y-78913833D03*
%TO.C,J5*%
X171031767Y-131874233D03*
%TO.C,J2*%
X176111767Y-78913833D03*
%TO.C,J5*%
X176111767Y-131874233D03*
M02*
